<svg id="svg" version="1.1" xmlns="http://www.w3.org/2000/svg" xmlns:xlink="http://www.w3.org/1999/xlink" width="48" height="48" viewBox="0, 0, 400,400"><g id="svgg"><path id="path0" d="M305.289 117.388 C 301.075 118.704,295.517 122.495,293.153 125.665 C 288.342 132.118,286.473 141.527,289.663 143.234 C 290.765 143.823,291.058 143.459,291.330 141.161 C 291.464 140.027,291.826 138.714,292.135 138.244 C 292.443 137.773,292.827 136.787,292.989 136.052 C 295.117 126.360,308.985 118.559,316.851 122.627 C 318.114 123.280,322.864 128.395,323.628 129.925 C 323.924 130.516,324.384 131.270,324.651 131.600 C 325.717 132.919,327.097 137.557,327.374 140.752 C 327.782 145.464,328.008 145.992,329.133 144.867 C 330.776 143.224,329.826 132.847,327.571 127.800 C 323.849 119.471,313.742 114.748,305.289 117.388 M97.200 117.876 C 87.591 119.485,79.385 130.183,80.663 139.438 L 80.889 141.075 81.886 140.078 C 82.435 139.529,83.075 138.532,83.308 137.862 C 84.272 135.098,90.002 128.774,92.700 127.497 C 93.195 127.263,93.600 126.934,93.600 126.767 C 93.600 126.599,94.275 126.242,95.100 125.974 C 95.925 125.706,96.955 125.242,97.389 124.943 C 101.374 122.200,109.756 126.745,114.200 134.058 C 114.420 134.420,115.261 135.680,116.070 136.858 C 116.878 138.036,117.657 139.472,117.800 140.050 C 118.127 141.363,119.904 142.315,120.267 141.370 C 120.643 140.389,119.225 133.621,118.161 131.325 C 117.633 130.183,117.198 129.103,117.196 128.925 C 117.189 128.371,113.768 123.879,112.144 122.290 C 108.728 118.949,102.239 117.033,97.200 117.876 M230.935 140.821 C 229.665 141.301,229.200 144.000,230.388 144.000 C 230.961 144.000,232.751 148.604,233.031 150.800 C 233.185 152.010,233.623 153.810,234.004 154.800 C 234.385 155.790,234.828 157.860,234.990 159.400 C 235.151 160.940,235.465 162.542,235.687 162.960 C 235.910 163.378,236.336 166.258,236.634 169.360 C 236.932 172.462,237.353 176.687,237.569 178.749 C 237.912 182.021,237.841 183.216,237.016 188.149 C 236.496 191.257,235.953 195.780,235.811 198.200 C 235.455 204.251,234.493 210.434,233.787 211.214 C 233.464 211.571,233.200 212.052,233.200 212.284 C 233.200 212.946,230.562 214.788,229.233 215.053 C 226.281 215.644,222.542 213.267,220.652 209.600 C 219.147 206.680,214.169 199.796,213.468 199.665 C 210.247 199.066,208.772 202.041,208.411 209.867 C 208.047 217.745,206.199 220.105,200.375 220.125 C 195.080 220.144,193.211 216.795,193.203 207.273 C 193.196 198.872,188.702 198.337,184.187 206.200 C 178.249 216.540,173.717 219.472,169.525 215.684 C 165.243 211.816,162.906 194.403,164.412 177.600 C 165.074 170.215,165.610 149.448,165.149 149.002 C 163.963 147.853,160.002 156.391,159.999 160.105 C 159.998 160.817,159.738 162.930,159.422 164.800 C 157.954 173.473,157.334 202.390,158.496 208.000 C 160.400 217.195,165.447 222.204,173.301 222.694 C 177.603 222.963,179.243 222.277,183.177 218.566 L 186.072 215.835 186.818 216.818 C 187.228 217.358,187.787 218.250,188.061 218.800 C 191.773 226.276,203.514 228.120,211.200 222.436 C 211.970 221.866,212.649 221.310,212.709 221.200 C 215.711 215.688,216.874 215.210,219.432 218.440 C 222.926 222.852,230.517 225.093,234.600 222.918 C 240.684 219.678,242.896 212.235,244.027 191.200 C 244.584 180.834,243.833 173.883,240.982 163.000 C 240.463 161.020,239.918 158.770,239.771 158.000 C 239.623 157.230,239.164 155.932,238.751 155.116 C 238.338 154.300,237.994 153.400,237.986 153.116 C 237.979 152.832,237.625 151.880,237.200 151.000 C 236.775 150.120,236.421 149.165,236.414 148.878 C 236.406 148.591,236.025 147.511,235.566 146.478 C 233.023 140.756,232.571 140.203,230.935 140.821 M202.437 145.424 C 199.707 145.936,197.007 146.538,196.437 146.761 C 195.867 146.985,194.680 147.280,193.800 147.417 C 186.909 148.494,183.693 150.784,185.177 153.558 C 185.773 154.672,188.767 154.723,190.553 153.651 C 191.308 153.198,192.985 152.800,194.800 152.643 C 196.450 152.501,198.745 152.028,199.900 151.592 C 204.532 149.845,206.333 149.275,209.305 148.617 C 213.206 147.753,213.857 146.941,211.865 145.422 C 210.218 144.167,209.138 144.167,202.437 145.424 M190.800 162.755 C 186.862 164.381,188.230 168.510,192.265 167.179 C 193.122 166.896,196.460 166.773,201.411 166.843 C 209.748 166.960,210.230 166.857,209.778 165.053 C 209.055 162.173,196.031 160.596,190.800 162.755 M327.406 226.500 C 327.097 232.849,327.327 244.803,327.791 246.496 C 328.179 247.910,326.816 248.570,325.224 247.739 C 323.969 247.084,313.015 246.986,311.361 247.615 C 309.205 248.434,312.685 249.662,319.282 250.409 C 321.298 250.638,323.151 250.993,323.399 251.200 C 323.648 251.406,324.920 251.841,326.226 252.167 C 334.688 254.280,339.260 257.715,340.909 263.200 C 341.308 264.528,339.684 266.748,338.101 267.038 C 337.276 267.190,336.245 267.558,335.811 267.857 C 335.377 268.156,334.744 268.400,334.405 268.400 C 334.066 268.400,333.146 268.744,332.362 269.164 C 327.950 271.529,323.590 271.968,300.200 272.403 C 290.080 272.591,275.500 273.023,267.800 273.362 C 260.100 273.701,247.860 273.989,240.600 274.002 C 233.340 274.014,226.066 274.198,224.436 274.409 C 222.805 274.621,216.505 275.152,210.436 275.589 C 204.366 276.026,197.960 276.577,196.200 276.814 C 194.343 277.063,179.484 277.382,160.800 277.572 C 143.090 277.753,128.330 278.008,128.000 278.140 C 127.670 278.271,125.115 278.654,122.322 278.991 C 119.529 279.328,116.760 279.787,116.169 280.012 C 115.578 280.236,114.264 280.602,113.247 280.824 C 111.146 281.284,107.296 282.740,106.400 283.413 C 106.070 283.662,104.975 284.335,103.967 284.910 C 98.935 287.780,96.267 293.541,95.828 302.489 C 95.706 304.970,95.494 308.771,95.357 310.935 C 94.568 323.417,97.515 328.319,106.818 330.002 C 108.238 330.259,110.570 330.766,112.000 331.129 C 115.843 332.104,135.272 332.283,141.426 331.400 C 143.860 331.050,149.890 330.604,154.826 330.407 C 159.762 330.210,167.130 329.862,171.200 329.632 C 181.052 329.076,210.962 328.380,234.200 328.166 C 244.540 328.071,255.250 327.821,258.000 327.612 C 260.750 327.402,265.160 327.113,267.799 326.970 C 270.438 326.826,273.858 326.387,275.399 325.994 C 276.940 325.602,279.268 325.155,280.574 325.002 C 281.880 324.849,283.410 324.545,283.974 324.327 C 285.041 323.913,289.588 323.248,298.800 322.158 C 304.859 321.442,310.379 321.552,311.413 322.411 C 311.783 322.718,312.396 323.156,312.775 323.384 C 318.774 327.001,320.258 330.160,318.228 335.000 C 315.819 340.746,310.686 342.589,296.000 342.981 C 291.050 343.113,285.740 343.391,284.200 343.598 C 282.660 343.805,275.460 343.980,268.200 343.988 C 253.470 344.004,245.932 344.775,238.300 347.046 C 237.200 347.373,237.478 347.911,238.900 348.205 C 239.615 348.353,243.080 349.164,246.600 350.007 C 250.120 350.850,253.885 351.669,254.967 351.826 C 256.049 351.983,258.071 352.627,259.461 353.257 L 261.989 354.403 261.010 356.617 C 260.471 357.834,259.917 359.499,259.778 360.315 C 259.461 362.176,257.285 370.270,256.755 371.564 C 255.840 373.793,259.730 373.927,261.690 371.735 C 262.411 370.929,263.540 369.809,264.200 369.246 C 266.377 367.388,270.000 363.551,270.000 363.103 C 270.000 362.861,270.277 362.357,270.615 361.984 C 271.403 361.113,274.000 356.053,274.000 355.389 C 274.000 354.686,276.624 352.450,277.707 352.230 C 278.198 352.130,279.572 351.938,280.760 351.802 C 281.948 351.667,284.430 351.198,286.276 350.759 C 289.247 350.054,290.770 349.976,299.516 350.081 L 309.400 350.200 312.800 349.065 C 319.905 346.694,321.804 345.595,323.713 342.751 C 328.506 335.612,328.219 330.267,322.667 323.314 C 318.331 317.882,315.151 316.718,304.257 316.577 C 299.410 316.514,296.151 316.311,295.896 316.056 C 295.488 315.648,295.398 310.501,295.777 309.239 C 295.883 308.887,296.251 305.450,296.594 301.600 C 296.938 297.750,297.466 293.880,297.768 293.000 C 298.070 292.120,298.493 290.320,298.707 289.000 C 299.058 286.839,299.321 285.916,300.447 282.900 C 300.772 282.029,300.954 282.000,306.091 281.997 C 309.011 281.995,312.930 281.824,314.800 281.618 C 316.670 281.411,321.215 281.051,324.900 280.816 C 328.585 280.582,332.365 280.139,333.300 279.831 C 334.235 279.523,335.810 279.145,336.800 278.991 C 339.098 278.633,345.634 274.833,346.937 273.098 C 351.427 267.121,349.738 257.568,343.702 254.802 C 336.885 251.678,335.612 250.084,333.997 242.649 C 333.764 241.576,333.310 240.321,332.987 239.860 C 332.664 239.399,332.392 238.657,332.382 238.211 C 332.373 237.765,332.098 236.680,331.773 235.800 C 331.094 233.965,329.368 226.531,328.591 222.100 C 328.114 219.373,327.673 221.009,327.406 226.500 M278.069 282.262 C 279.249 283.331,278.936 284.529,276.554 288.066 C 275.318 289.900,274.147 291.760,273.952 292.200 C 273.108 294.098,269.950 297.910,268.151 299.200 C 262.994 302.901,254.647 299.020,250.151 290.832 C 249.738 290.079,248.900 288.549,248.288 287.432 C 245.893 283.054,246.623 282.521,255.200 282.393 C 258.390 282.345,263.430 282.178,266.400 282.021 C 276.084 281.512,277.266 281.536,278.069 282.262 M213.771 285.829 C 214.546 286.604,214.547 286.730,213.787 288.651 C 210.231 297.644,199.245 302.790,193.667 298.075 C 191.749 296.455,191.334 296.061,190.184 294.767 C 187.265 291.483,185.698 287.481,186.931 286.457 C 187.271 286.175,191.909 285.892,199.831 285.671 C 206.634 285.481,212.412 285.297,212.671 285.263 C 212.931 285.228,213.426 285.483,213.771 285.829 M151.400 286.349 C 152.942 286.676,153.221 288.286,152.027 289.963 C 151.572 290.601,151.200 291.286,151.200 291.484 C 151.200 291.682,150.795 292.403,150.300 293.085 C 149.805 293.767,149.130 294.733,148.800 295.230 C 145.879 299.637,140.653 301.610,137.335 299.560 C 135.900 298.673,133.200 295.429,133.200 294.591 C 133.200 294.320,132.922 293.867,132.581 293.584 C 132.241 293.302,131.504 292.103,130.945 290.920 C 129.852 288.609,129.964 288.089,131.767 287.099 C 133.170 286.329,148.537 285.742,151.400 286.349 M70.655 313.942 C 68.673 316.011,67.869 323.574,68.967 329.813 C 70.916 340.892,80.577 349.394,88.303 346.830 C 90.674 346.043,90.628 345.710,87.948 344.267 C 82.161 341.153,79.525 338.227,76.173 331.200 C 73.491 325.579,71.722 318.607,72.121 315.234 C 72.411 312.790,72.058 312.479,70.655 313.942 M237.808 317.384 C 243.825 320.910,240.592 323.226,230.635 322.524 C 225.992 322.196,225.712 321.505,229.009 318.509 C 231.850 315.927,234.701 315.563,237.808 317.384 M173.198 318.998 C 176.314 321.297,175.611 322.000,170.194 322.000 C 165.289 322.000,164.822 321.596,167.224 319.426 C 169.203 317.638,171.164 317.498,173.198 318.998 " stroke="none" fill="#0a0e0c" fill-rule="evenodd"></path><path id="path1" d="M0.000 200.000 L 0.000 400.000 200.000 400.000 L 400.000 400.000 400.000 200.000 L 400.000 0.000 200.000 0.000 L 0.000 0.000 0.000 200.000 M103.200 112.076 C 104.630 112.364,106.245 112.915,106.789 113.300 C 107.333 113.685,107.982 114.000,108.232 114.000 C 110.382 114.000,118.747 122.240,120.413 125.999 C 120.656 126.549,121.082 127.269,121.359 127.599 C 122.752 129.264,123.386 133.152,122.467 134.395 C 121.732 135.389,121.600 136.104,121.600 139.095 C 121.600 144.071,119.819 145.957,117.651 143.278 C 117.166 142.678,117.129 142.746,117.334 143.864 C 117.606 145.350,116.496 146.156,115.800 144.977 C 115.580 144.605,115.023 143.726,114.562 143.024 C 114.101 142.321,113.603 141.268,113.457 140.684 C 113.310 140.099,112.742 138.961,112.195 138.155 C 111.648 137.348,111.200 136.534,111.200 136.345 C 111.200 136.156,110.525 135.288,109.700 134.417 C 108.875 133.546,107.745 132.325,107.188 131.704 C 104.485 128.689,100.018 127.616,97.600 129.400 C 96.855 129.950,96.016 130.400,95.736 130.400 C 95.038 130.400,88.038 137.359,87.156 138.930 C 86.764 139.628,86.161 140.785,85.816 141.500 C 85.164 142.852,84.483 143.123,83.702 142.342 C 83.359 141.999,83.300 142.096,83.466 142.730 C 83.793 143.980,81.569 146.095,80.104 145.927 L 79.000 145.800 79.143 139.250 C 79.293 132.443,78.761 130.584,78.224 136.033 C 77.787 140.466,77.370 141.024,77.078 137.565 C 76.814 134.440,76.940 133.374,77.807 131.400 C 78.097 130.740,78.461 129.511,78.617 128.668 C 78.773 127.826,79.143 127.043,79.440 126.929 C 79.736 126.816,80.092 126.116,80.231 125.374 C 80.370 124.633,80.920 123.525,81.453 122.913 C 83.247 120.854,83.399 120.663,83.800 119.969 C 85.840 116.439,90.683 112.754,94.002 112.207 C 94.991 112.043,96.070 111.748,96.400 111.549 C 97.087 111.136,99.446 111.319,103.200 112.076 M312.806 112.424 C 314.668 112.658,316.477 113.108,316.827 113.424 C 317.177 113.741,317.839 114.000,318.299 114.000 C 318.759 114.000,319.868 114.763,320.768 115.700 C 321.666 116.635,323.209 118.210,324.198 119.200 C 326.652 121.658,328.000 123.585,328.000 124.635 C 328.000 125.119,328.243 125.608,328.541 125.722 C 329.067 125.924,329.622 127.236,331.283 132.200 C 331.724 133.520,332.447 135.491,332.888 136.580 C 333.508 138.108,333.634 139.050,333.440 140.703 C 332.781 146.308,328.434 151.444,327.167 148.114 C 326.843 147.260,326.678 147.150,326.399 147.602 C 325.698 148.736,324.827 146.100,324.810 142.789 C 324.804 141.793,324.563 140.623,324.273 140.189 C 323.984 139.755,323.533 138.437,323.271 137.260 C 323.010 136.084,322.437 134.664,321.998 134.106 C 321.559 133.549,321.200 132.866,321.200 132.589 C 321.200 132.312,320.945 131.988,320.634 131.868 C 320.323 131.749,319.828 131.223,319.534 130.700 C 317.646 127.338,317.178 126.874,315.180 126.395 C 314.090 126.134,313.097 125.758,312.975 125.560 C 312.633 125.006,310.077 125.134,309.086 125.755 C 308.599 126.060,307.486 126.436,306.614 126.589 C 305.741 126.743,304.786 127.213,304.491 127.634 C 304.196 128.055,303.721 128.400,303.435 128.400 C 303.150 128.400,301.985 129.435,300.846 130.700 C 297.785 134.103,297.704 134.216,297.418 135.518 C 297.273 136.177,296.805 137.034,296.377 137.421 C 295.950 137.807,295.600 138.447,295.600 138.841 C 295.600 139.236,295.150 140.044,294.600 140.638 C 294.050 141.231,293.600 142.129,293.600 142.632 C 293.600 143.881,292.911 145.600,292.410 145.600 C 292.184 145.600,292.000 145.212,292.000 144.738 C 292.000 143.907,291.972 143.902,291.216 144.586 C 289.606 146.042,287.709 145.131,286.405 142.276 C 284.993 139.181,284.497 134.752,285.377 133.089 C 285.700 132.478,286.181 130.858,286.445 129.489 C 286.710 128.120,287.168 126.856,287.463 126.680 C 287.758 126.504,288.000 126.130,288.000 125.849 C 288.000 124.447,295.031 116.000,296.198 116.000 C 296.461 116.000,297.002 115.640,297.400 115.200 C 297.798 114.760,298.411 114.396,298.762 114.391 C 299.113 114.386,300.210 114.003,301.200 113.538 C 302.707 112.832,304.745 112.435,308.810 112.057 C 309.146 112.026,310.944 112.191,312.806 112.424 M233.284 140.059 C 233.947 140.532,234.743 141.477,235.051 142.159 C 235.360 142.842,235.783 143.670,235.993 144.000 C 236.532 144.849,238.262 149.486,238.778 151.467 C 239.017 152.383,239.479 153.643,239.804 154.267 C 240.129 154.890,240.400 155.850,240.406 156.400 C 240.413 156.950,240.754 158.140,241.164 159.044 C 241.575 159.948,242.041 161.460,242.201 162.403 C 242.360 163.347,242.733 164.700,243.030 165.411 C 243.515 166.571,244.141 169.888,245.218 177.000 C 245.418 178.320,245.845 182.609,246.168 186.531 C 246.537 191.018,246.948 193.897,247.277 194.293 C 248.545 195.820,247.452 213.650,245.982 215.421 C 245.765 215.683,245.320 216.799,244.992 217.901 C 244.665 219.003,244.146 220.113,243.838 220.368 C 243.530 220.624,243.166 221.280,243.029 221.827 C 242.806 222.717,242.228 223.531,240.820 224.940 C 240.568 225.193,239.992 225.788,239.541 226.262 C 237.157 228.770,225.775 228.602,221.501 225.996 C 219.591 224.832,218.520 224.986,217.066 226.636 C 215.650 228.241,212.961 230.174,211.538 230.609 C 211.022 230.766,209.790 231.259,208.800 231.704 C 205.327 233.264,194.287 232.040,191.600 229.796 C 191.270 229.520,190.552 229.158,190.005 228.990 C 188.696 228.590,185.937 226.787,185.277 225.902 C 184.533 224.902,181.855 224.960,180.889 225.996 C 180.476 226.439,179.200 226.972,178.013 227.197 C 176.840 227.420,175.648 227.794,175.365 228.029 C 173.782 229.343,164.327 229.287,162.632 227.954 C 162.105 227.539,161.484 227.200,161.251 227.200 C 161.018 227.200,160.616 226.795,160.356 226.300 C 160.096 225.805,159.639 225.256,159.342 225.080 C 159.044 224.904,158.800 224.433,158.800 224.034 C 158.800 223.635,158.466 222.879,158.058 222.354 C 157.650 221.829,157.097 220.728,156.829 219.906 C 156.561 219.084,156.191 218.318,156.007 218.204 C 155.823 218.090,155.460 216.693,155.200 215.099 C 154.941 213.504,154.590 211.450,154.420 210.534 C 154.250 209.617,154.245 208.651,154.408 208.386 C 154.572 208.122,154.722 205.722,154.742 203.053 C 154.762 200.384,154.959 195.950,155.180 193.200 C 155.401 190.450,155.587 186.670,155.594 184.800 C 155.606 181.658,156.546 172.908,157.007 171.659 C 157.117 171.361,157.392 168.978,157.619 166.364 C 157.846 163.749,158.272 160.929,158.566 160.097 C 158.859 159.265,159.224 157.597,159.375 156.392 C 160.157 150.179,165.294 144.804,167.056 148.356 L 167.530 149.312 167.665 148.356 C 167.952 146.323,172.400 147.161,172.400 149.248 C 172.400 149.647,172.146 150.564,171.835 151.286 C 171.465 152.146,171.113 155.638,170.815 161.383 C 170.565 166.214,170.209 170.354,170.024 170.583 C 169.840 170.812,169.560 172.710,169.403 174.800 C 169.217 177.275,168.871 179.018,168.410 179.800 C 168.022 180.460,167.599 181.691,167.471 182.536 C 167.163 184.573,166.374 185.586,165.912 184.539 C 165.732 184.132,165.682 187.220,165.801 191.400 C 166.016 199.036,166.629 203.430,167.650 204.661 C 168.026 205.114,168.175 206.258,168.120 208.273 C 168.069 210.173,168.184 211.134,168.443 210.973 C 168.666 210.835,168.733 210.203,168.592 209.562 C 168.374 208.570,168.458 208.400,169.168 208.400 C 169.626 208.400,170.000 208.570,170.000 208.778 C 170.000 209.566,172.661 212.016,173.903 212.372 C 176.319 213.065,178.800 211.860,178.800 209.994 C 178.800 209.378,179.066 208.783,179.400 208.655 C 179.730 208.529,180.000 208.069,180.000 207.633 C 180.000 207.198,180.450 206.356,181.000 205.762 C 181.550 205.169,182.000 204.434,182.000 204.129 C 182.000 203.824,182.261 203.475,182.581 203.352 C 182.900 203.230,183.375 202.470,183.637 201.665 C 183.899 200.859,184.358 200.056,184.657 199.880 C 184.955 199.704,185.200 199.308,185.200 199.000 C 185.200 196.679,188.698 195.543,191.409 196.984 C 194.670 198.718,194.796 199.055,194.825 206.063 C 194.841 209.943,194.978 211.884,195.197 211.341 C 195.791 209.870,196.345 209.901,196.631 211.422 C 197.534 216.238,203.471 217.471,205.498 213.264 C 206.271 211.659,206.432 210.485,206.657 204.800 C 206.877 199.247,207.037 198.049,207.660 197.246 C 208.067 196.721,208.400 195.978,208.400 195.595 C 208.400 192.744,214.235 192.895,214.955 195.765 C 215.090 196.300,215.830 197.564,216.600 198.573 C 217.370 199.582,218.000 200.579,218.000 200.789 C 218.000 201.000,218.358 201.363,218.795 201.597 C 219.233 201.832,219.703 202.472,219.841 203.021 C 219.979 203.570,220.454 204.273,220.897 204.583 C 221.468 204.983,221.646 205.448,221.507 206.174 C 221.341 207.041,221.457 207.200,222.255 207.200 C 222.775 207.200,223.200 207.372,223.200 207.581 C 223.200 208.044,226.613 209.600,227.628 209.600 C 229.448 209.600,231.469 207.740,233.470 204.226 C 233.728 203.772,234.063 200.790,234.213 197.600 C 234.373 194.194,234.703 191.346,235.012 190.700 C 235.302 190.095,235.369 189.600,235.161 189.600 C 234.953 189.600,234.584 189.105,234.342 188.500 C 234.099 187.895,233.750 187.040,233.567 186.600 C 233.158 185.621,232.400 174.437,232.400 169.390 C 232.400 166.861,232.160 164.952,231.634 163.308 C 231.213 161.989,230.737 159.225,230.576 157.164 C 230.414 155.103,230.039 152.833,229.741 152.121 C 229.048 150.462,229.043 147.378,229.733 146.734 C 230.173 146.323,230.103 145.998,229.333 144.863 C 227.421 142.046,228.280 140.191,231.938 139.236 C 232.014 139.216,232.620 139.587,233.284 140.059 M212.165 143.500 C 213.171 144.765,213.995 146.103,213.997 146.473 C 213.999 146.843,214.405 147.270,214.900 147.420 C 219.158 148.718,217.901 152.615,212.970 153.405 C 211.226 153.684,208.900 154.221,207.800 154.598 C 206.700 154.975,205.260 155.467,204.600 155.690 C 197.669 158.034,190.410 158.243,190.081 156.108 C 189.978 155.437,189.693 155.357,187.881 155.491 C 184.039 155.775,182.055 153.481,183.386 150.295 C 183.724 149.487,184.000 148.291,184.000 147.637 C 184.000 146.525,184.121 146.432,185.900 146.176 C 186.945 146.025,188.135 145.609,188.544 145.251 C 189.136 144.733,190.056 144.618,193.052 144.688 C 196.618 144.772,196.795 144.737,196.415 144.028 C 195.868 143.006,196.540 142.800,200.423 142.800 C 202.875 142.800,203.873 142.621,204.890 142.001 C 207.623 140.336,210.045 140.835,212.165 143.500 M166.524 158.200 C 166.526 159.520,166.601 160.012,166.690 159.293 C 166.779 158.574,166.777 157.494,166.686 156.893 C 166.595 156.292,166.522 156.880,166.524 158.200 M206.974 158.790 C 207.538 159.005,208.000 159.444,208.000 159.767 C 208.000 160.090,208.333 160.590,208.740 160.877 C 211.038 162.501,212.060 166.376,210.581 167.855 C 209.802 168.635,209.667 168.999,210.008 169.410 C 210.497 169.999,209.749 170.960,207.810 172.230 C 204.707 174.264,189.705 171.684,191.569 169.437 C 191.917 169.019,191.801 168.949,191.009 169.100 C 188.164 169.644,186.586 165.889,188.162 162.325 L 189.124 160.150 192.462 159.622 C 194.298 159.332,197.870 158.966,200.400 158.809 C 202.930 158.653,205.213 158.497,205.474 158.462 C 205.735 158.428,206.410 158.576,206.974 158.790 M200.000 217.125 C 196.761 217.351,197.239 218.002,200.620 217.968 C 202.369 217.951,203.530 217.837,203.200 217.715 C 202.870 217.593,202.420 217.382,202.200 217.246 C 201.980 217.111,200.990 217.056,200.000 217.125 M329.554 219.779 C 329.862 220.422,330.372 222.669,330.686 224.774 C 331.000 226.878,331.593 229.860,332.003 231.400 C 332.413 232.940,332.865 234.954,333.006 235.877 C 333.147 236.799,333.608 238.232,334.031 239.061 C 334.454 239.891,334.800 240.941,334.800 241.396 C 334.800 241.850,335.042 242.577,335.338 243.011 C 335.634 243.445,336.090 244.672,336.353 245.737 C 337.385 249.927,339.280 251.775,344.605 253.786 C 351.288 256.309,353.029 268.722,347.485 274.315 C 345.719 276.097,343.193 278.000,342.594 278.000 C 342.321 278.000,341.882 278.260,341.618 278.578 C 341.354 278.896,340.117 279.366,338.869 279.623 C 337.621 279.880,336.240 280.280,335.800 280.512 C 335.360 280.745,333.110 281.169,330.800 281.455 C 328.490 281.742,325.340 282.163,323.800 282.393 C 322.260 282.622,316.548 282.925,311.107 283.066 L 301.213 283.323 300.984 284.761 C 300.857 285.553,300.420 287.280,300.012 288.600 C 299.603 289.920,299.149 292.260,299.003 293.800 C 298.856 295.340,298.555 297.410,298.333 298.400 C 297.746 301.018,296.945 313.857,297.316 314.691 C 297.607 315.345,298.055 315.373,303.137 315.048 C 310.679 314.566,317.331 316.131,320.280 319.080 C 320.731 319.531,321.269 319.968,321.476 320.050 C 322.192 320.335,325.590 324.822,325.838 325.809 C 325.975 326.354,326.225 326.800,326.395 326.800 C 328.344 326.800,328.597 337.724,326.699 339.922 C 326.377 340.295,325.919 341.181,325.680 341.891 C 325.277 343.096,324.770 343.887,323.800 344.825 C 322.348 346.231,321.100 347.200,320.742 347.200 C 320.514 347.200,319.869 347.560,319.309 348.000 C 318.750 348.440,317.999 348.800,317.640 348.800 C 317.282 348.800,316.361 349.135,315.594 349.544 C 311.839 351.550,306.189 352.090,295.753 351.443 C 291.008 351.149,289.827 351.193,288.353 351.720 C 287.389 352.065,285.250 352.456,283.600 352.591 C 277.896 353.054,275.027 354.764,274.161 358.214 C 274.024 358.761,273.756 359.303,273.567 359.420 C 273.378 359.537,272.859 360.391,272.415 361.317 C 271.005 364.256,270.165 365.386,267.584 367.823 C 266.199 369.130,264.331 370.932,263.433 371.827 C 262.251 373.006,261.027 373.708,259.000 374.374 C 255.941 375.379,255.021 376.013,254.134 377.727 C 253.463 379.026,252.400 378.597,252.400 377.027 C 252.400 376.546,252.136 375.804,251.813 375.376 C 251.490 374.949,251.220 373.735,251.213 372.677 C 251.206 371.620,250.997 369.949,250.749 368.965 C 250.372 367.466,250.400 367.063,250.922 366.487 C 252.843 364.363,252.128 362.013,249.190 360.796 C 248.428 360.480,247.751 359.779,247.401 358.941 C 246.697 357.256,245.535 356.800,241.937 356.800 C 239.769 356.800,238.903 356.624,238.148 356.030 C 237.528 355.543,236.183 355.158,234.484 354.982 C 233.008 354.828,231.580 354.527,231.312 354.312 C 231.043 354.097,228.073 353.753,224.712 353.546 C 214.467 352.917,201.553 351.761,198.427 351.194 C 197.231 350.977,190.481 350.791,183.427 350.779 C 168.881 350.756,149.747 350.214,148.702 349.795 C 147.874 349.464,148.159 348.800,149.130 348.800 C 149.505 348.800,150.458 348.453,151.249 348.030 C 152.059 347.595,153.975 347.141,155.643 346.987 C 157.269 346.836,159.140 346.444,159.800 346.114 C 160.769 345.629,163.502 345.481,174.000 345.343 C 183.357 345.220,188.793 344.958,193.400 344.408 C 196.920 343.988,202.460 343.552,205.712 343.438 C 208.964 343.325,211.761 343.148,211.927 343.045 C 212.915 342.435,230.747 341.578,241.060 341.645 C 251.872 341.716,263.359 341.243,264.252 340.692 C 264.468 340.558,267.477 340.260,270.938 340.029 C 274.399 339.799,278.439 339.321,279.915 338.968 C 282.105 338.444,285.375 338.314,297.658 338.263 C 311.385 338.206,312.784 338.138,313.490 337.500 C 313.915 337.115,314.444 336.800,314.665 336.800 C 316.958 336.800,318.589 330.076,316.813 327.944 C 316.153 327.152,316.024 327.113,316.013 327.700 C 316.000 328.424,315.402 328.651,315.042 328.068 C 314.930 327.886,313.794 327.507,312.519 327.226 C 311.243 326.946,309.818 326.537,309.352 326.318 C 308.449 325.895,305.487 326.069,302.200 326.739 C 301.100 326.964,297.770 327.273,294.800 327.426 C 291.672 327.587,288.811 327.946,288.000 328.278 C 287.230 328.593,285.070 329.024,283.200 329.235 C 281.330 329.446,279.181 329.909,278.425 330.264 C 277.606 330.648,275.583 330.979,273.425 331.081 C 271.290 331.182,269.148 331.529,268.214 331.926 C 266.696 332.571,239.194 332.951,229.000 332.467 C 223.538 332.208,164.187 333.183,163.400 333.545 C 162.323 334.040,153.482 334.807,148.908 334.803 C 146.303 334.801,144.713 335.006,143.508 335.500 C 141.041 336.511,115.927 336.565,114.382 335.563 C 113.802 335.186,112.052 334.823,110.105 334.675 C 108.293 334.538,106.313 334.169,105.705 333.854 C 105.097 333.540,103.550 333.151,102.269 332.991 C 100.903 332.821,99.661 332.413,99.269 332.006 C 98.901 331.625,98.113 331.196,97.517 331.053 C 96.319 330.766,93.827 327.543,92.371 324.400 C 90.962 321.358,92.064 300.447,93.515 302.686 C 93.696 302.966,94.126 301.346,94.525 298.886 C 94.906 296.529,95.394 293.700,95.609 292.600 C 95.823 291.500,96.192 289.359,96.428 287.842 C 96.664 286.325,97.093 284.705,97.380 284.242 C 97.667 283.779,98.015 282.788,98.153 282.041 C 98.486 280.237,100.626 278.076,102.400 277.753 C 103.170 277.613,104.070 277.269,104.400 276.989 C 105.825 275.777,111.084 274.451,116.200 274.013 C 119.060 273.769,122.210 273.403,123.200 273.202 C 124.190 273.001,130.040 272.626,136.200 272.369 C 142.360 272.111,147.708 271.741,148.084 271.545 C 148.710 271.219,160.388 270.566,172.200 270.197 C 174.840 270.115,178.170 269.859,179.600 269.630 C 184.615 268.826,209.504 268.310,232.400 268.535 C 257.082 268.779,294.537 268.299,301.200 267.654 C 303.510 267.431,308.631 267.049,312.581 266.806 C 316.530 266.563,319.950 266.213,320.181 266.029 C 320.411 265.845,322.516 265.567,324.858 265.411 C 327.308 265.249,329.601 264.876,330.258 264.534 C 332.046 263.604,336.800 263.309,336.800 264.129 C 336.800 264.484,336.305 265.043,335.700 265.371 L 334.600 265.968 336.100 265.984 C 337.427 265.998,337.600 265.888,337.600 265.026 C 337.600 263.527,336.889 262.000,336.192 262.000 C 335.846 262.000,335.118 261.554,334.573 261.009 C 333.469 259.906,331.964 258.983,331.489 259.119 C 331.318 259.168,331.073 258.936,330.946 258.604 C 330.819 258.272,330.283 258.000,329.756 258.000 C 329.228 258.000,328.125 257.640,327.304 257.200 C 326.471 256.753,325.048 256.400,324.080 256.400 C 323.128 256.400,321.505 256.055,320.474 255.634 C 319.443 255.212,317.430 254.762,316.000 254.633 C 314.570 254.505,312.590 254.136,311.600 253.814 C 310.610 253.491,308.990 252.997,308.000 252.714 C 305.872 252.106,305.346 250.175,307.100 249.405 C 307.595 249.188,308.000 248.689,308.000 248.295 C 308.000 246.409,317.060 245.264,323.600 246.323 C 325.030 246.555,326.310 246.622,326.445 246.472 C 326.864 246.007,325.888 240.400,325.388 240.400 C 323.464 240.400,322.524 233.904,324.100 231.497 C 324.519 230.857,324.801 229.660,324.802 228.514 C 324.807 224.598,326.215 221.924,326.495 225.300 C 326.572 226.235,326.657 225.442,326.683 223.538 C 326.751 218.602,328.127 216.800,329.554 219.779 M267.000 270.821 C 264.881 270.955,267.680 271.067,273.800 271.093 C 279.520 271.117,284.020 271.076,283.800 271.002 C 283.004 270.733,270.513 270.598,267.000 270.821 M220.063 272.352 C 219.341 272.810,221.031 273.134,222.400 272.799 L 223.400 272.555 222.400 272.283 C 221.099 271.929,220.713 271.941,220.063 272.352 M185.800 274.400 C 182.546 274.579,184.108 274.661,191.800 274.715 C 198.634 274.763,201.994 274.655,201.600 274.400 C 200.968 273.992,193.225 273.992,185.800 274.400 M114.705 278.283 C 115.202 278.379,115.922 278.375,116.305 278.275 C 116.687 278.175,116.280 278.096,115.400 278.101 C 114.520 278.105,114.207 278.187,114.705 278.283 M74.606 304.146 C 73.474 310.800,73.337 319.638,74.352 320.556 C 74.765 320.931,75.224 321.994,75.372 322.918 C 75.639 324.590,76.285 326.128,79.250 332.148 C 80.102 333.879,80.800 335.622,80.800 336.021 C 80.800 336.420,81.160 336.860,81.600 337.000 C 82.040 337.140,82.400 337.467,82.400 337.727 C 82.400 338.199,84.904 340.400,85.441 340.400 C 85.597 340.400,86.281 340.816,86.962 341.325 C 87.643 341.833,88.830 342.497,89.600 342.800 C 90.370 343.103,91.671 343.767,92.492 344.275 C 93.313 344.784,94.340 345.200,94.776 345.200 C 95.479 345.200,97.600 347.022,97.600 347.626 C 97.600 348.222,95.661 349.543,94.400 349.805 C 93.630 349.965,92.514 350.345,91.920 350.648 C 90.703 351.270,84.797 351.436,85.420 350.831 C 85.629 350.628,86.326 350.403,86.969 350.331 C 87.612 350.259,88.212 349.975,88.302 349.700 C 88.563 348.905,84.045 349.035,83.147 349.848 C 82.390 350.533,77.200 349.951,77.200 349.182 C 77.200 349.001,76.848 348.742,76.418 348.606 C 74.582 348.023,68.000 341.297,68.000 340.003 C 68.000 339.739,67.662 339.046,67.250 338.462 C 66.837 337.878,66.369 336.770,66.210 336.000 C 66.052 335.230,65.682 334.221,65.389 333.757 C 63.674 331.042,63.650 317.093,65.357 315.385 C 65.671 315.072,66.047 314.103,66.195 313.231 C 66.342 312.359,66.707 311.443,67.006 311.195 C 67.304 310.948,67.659 310.243,67.793 309.630 C 67.928 309.017,69.313 307.154,70.871 305.490 C 73.882 302.274,74.992 301.875,74.606 304.146 M66.550 324.600 C 66.551 327.020,66.616 327.958,66.696 326.685 C 66.776 325.412,66.775 323.432,66.694 322.285 C 66.614 321.138,66.549 322.180,66.550 324.600 M257.863 354.698 C 257.747 354.885,257.815 355.300,258.014 355.619 C 258.212 355.939,258.271 356.852,258.144 357.650 C 258.006 358.522,258.090 359.209,258.357 359.373 C 258.661 359.561,258.800 358.948,258.800 357.424 C 258.800 356.201,258.813 355.070,258.830 354.910 C 258.875 354.476,258.105 354.307,257.863 354.698 " stroke="none" fill="#6bf2c2" fill-rule="evenodd"></path><path id="path2" d="M307.800 123.600 C 307.641 123.857,309.022 123.990,311.676 123.972 C 314.353 123.954,315.519 123.823,315.000 123.600 C 313.875 123.116,308.099 123.116,307.800 123.600 M303.700 125.212 C 303.205 125.411,302.800 125.741,302.800 125.944 C 302.800 126.147,302.350 126.426,301.800 126.564 C 301.250 126.702,300.800 127.053,300.800 127.343 C 300.800 127.634,300.350 128.077,299.800 128.327 C 299.250 128.578,298.800 129.036,298.800 129.345 C 298.800 129.654,298.440 130.001,298.000 130.116 C 297.517 130.242,297.200 130.662,297.200 131.175 C 297.200 131.643,296.932 132.128,296.604 132.254 C 296.277 132.379,295.820 133.184,295.589 134.041 C 295.358 134.899,294.927 135.600,294.630 135.600 C 294.013 135.600,293.659 137.355,293.992 138.765 L 294.217 139.720 294.709 138.641 C 294.979 138.048,295.200 137.374,295.200 137.144 C 295.200 136.914,295.560 136.269,296.000 135.709 C 296.440 135.150,296.800 134.351,296.800 133.934 C 296.800 133.516,297.063 133.074,297.385 132.950 C 297.706 132.827,298.081 132.374,298.218 131.943 C 298.542 130.923,300.900 128.576,302.358 127.822 C 302.988 127.496,303.599 126.979,303.717 126.672 C 303.835 126.365,304.487 126.003,305.166 125.867 C 305.845 125.731,306.400 125.436,306.400 125.210 C 306.400 124.714,304.937 124.715,303.700 125.212 M316.487 125.262 C 316.695 125.885,317.590 125.994,317.621 125.400 C 317.633 125.180,317.342 124.938,316.975 124.862 C 316.558 124.775,316.375 124.925,316.487 125.262 M97.649 126.576 C 96.107 126.882,94.952 127.343,94.729 127.741 C 94.526 128.103,94.106 128.400,93.794 128.400 C 93.483 128.400,93.035 128.760,92.800 129.200 C 92.565 129.640,92.180 130.000,91.945 130.000 C 90.247 130.000,84.000 138.363,84.000 140.637 C 84.000 141.999,84.685 141.834,85.001 140.397 C 85.146 139.735,85.586 139.022,85.978 138.812 C 86.370 138.602,86.908 137.905,87.174 137.262 C 88.880 133.144,97.394 127.427,101.351 127.743 C 105.758 128.094,112.640 134.400,114.182 139.500 C 114.331 139.995,114.733 140.400,115.074 140.400 C 115.521 140.400,115.626 140.150,115.452 139.500 C 115.319 139.005,115.208 138.401,115.205 138.158 C 115.202 137.916,114.750 137.231,114.200 136.638 C 113.650 136.044,113.200 135.214,113.200 134.793 C 113.200 134.373,112.852 133.842,112.427 133.614 C 112.002 133.387,111.540 132.841,111.400 132.400 C 111.260 131.960,110.888 131.600,110.573 131.600 C 110.258 131.600,110.000 131.406,110.000 131.169 C 110.000 130.622,107.796 128.400,107.253 128.400 C 107.029 128.400,106.610 128.063,106.321 127.652 C 105.845 126.972,105.174 126.783,101.200 126.214 C 100.650 126.135,99.052 126.298,97.649 126.576 M318.600 126.800 C 318.440 127.058,318.490 127.450,318.710 127.670 C 318.976 127.936,319.206 127.913,319.400 127.600 C 319.560 127.342,319.510 126.950,319.290 126.730 C 319.024 126.464,318.794 126.487,318.600 126.800 M320.259 128.705 C 320.155 128.873,320.318 129.458,320.621 130.005 L 321.172 131.000 321.186 129.700 C 321.199 128.503,320.709 127.977,320.259 128.705 M326.124 142.600 C 326.126 143.920,326.201 144.412,326.290 143.693 C 326.379 142.974,326.377 141.894,326.286 141.293 C 326.195 140.692,326.122 141.280,326.124 142.600 M168.627 148.936 C 167.739 149.824,167.677 150.240,167.420 157.036 C 167.270 160.976,166.958 164.740,166.725 165.400 C 166.493 166.060,166.236 170.290,166.155 174.800 C 166.065 179.825,166.144 182.613,166.360 182.000 C 167.980 177.402,168.461 174.774,169.007 167.557 C 169.330 163.290,169.843 157.550,170.146 154.800 C 170.847 148.449,170.490 147.073,168.627 148.936 M212.800 149.425 C 212.030 149.716,210.984 149.965,210.475 149.977 C 209.526 150.001,205.754 151.127,202.200 152.449 C 201.100 152.858,199.030 153.296,197.600 153.423 C 195.142 153.642,191.200 154.998,191.200 155.626 C 191.200 156.580,196.426 156.680,199.613 155.787 C 200.816 155.449,202.880 154.904,204.200 154.576 C 205.520 154.247,207.140 153.729,207.800 153.425 C 208.460 153.121,210.200 152.747,211.666 152.593 C 213.856 152.364,214.523 152.115,215.398 151.202 L 216.464 150.090 215.543 149.445 C 215.036 149.090,214.527 148.821,214.411 148.848 C 214.295 148.874,213.570 149.134,212.800 149.425 M231.357 152.168 C 230.988 153.130,231.496 157.466,232.223 159.554 C 232.581 160.582,233.008 164.141,233.255 168.154 C 233.500 172.124,233.857 175.111,234.105 175.265 C 234.361 175.423,234.572 177.459,234.630 180.335 C 234.684 182.978,234.859 185.556,235.020 186.064 L 235.313 186.987 235.687 185.993 C 236.110 184.868,235.683 171.746,235.192 170.800 C 235.021 170.470,234.655 167.770,234.378 164.800 C 234.058 161.356,233.684 159.242,233.347 158.963 C 233.056 158.722,232.654 157.051,232.451 155.238 C 232.066 151.793,231.794 151.030,231.357 152.168 M193.375 168.589 C 191.881 170.082,192.413 170.404,197.053 170.819 C 203.200 171.368,206.670 171.288,208.068 170.565 L 209.296 169.930 208.133 169.222 C 207.263 168.693,205.710 168.451,201.984 168.263 C 199.243 168.125,196.426 167.900,195.724 167.764 C 194.683 167.562,194.250 167.714,193.375 168.589 M308.238 251.138 C 307.860 251.751,308.583 252.037,311.110 252.277 C 312.370 252.396,313.772 252.725,314.227 253.009 C 314.682 253.292,316.482 253.739,318.227 254.003 C 319.972 254.267,321.733 254.660,322.141 254.877 C 322.548 255.094,324.048 255.437,325.474 255.639 C 328.790 256.109,331.665 257.334,334.248 259.379 C 335.375 260.270,336.607 261.182,336.986 261.404 C 337.365 261.626,337.907 262.706,338.191 263.804 L 338.708 265.800 338.992 264.331 C 339.542 261.496,339.064 260.678,334.942 257.400 C 334.250 256.850,333.510 256.400,333.296 256.400 C 333.083 256.400,332.471 256.057,331.938 255.637 C 331.405 255.218,330.126 254.748,329.097 254.594 C 328.068 254.439,327.025 254.071,326.780 253.776 C 326.535 253.481,325.494 253.126,324.467 252.988 C 323.440 252.849,321.790 252.493,320.800 252.195 C 319.810 251.898,317.650 251.547,316.000 251.415 C 314.350 251.284,311.985 251.077,310.745 250.954 C 309.401 250.822,308.388 250.896,308.238 251.138 M262.000 283.837 C 257.270 284.124,252.500 284.413,251.400 284.479 C 249.084 284.619,248.674 286.096,250.357 288.236 C 250.821 288.826,251.200 289.526,251.200 289.792 C 251.200 290.058,251.560 290.602,252.000 291.000 C 252.440 291.398,252.800 291.911,252.800 292.141 C 252.800 293.422,258.387 297.838,261.122 298.719 L 263.930 299.624 265.844 298.712 C 268.201 297.589,269.694 296.057,272.390 292.000 C 273.047 291.010,273.589 290.057,273.593 289.883 C 273.597 289.709,274.320 288.591,275.200 287.400 C 278.577 282.829,278.586 282.832,262.000 283.837 M189.115 287.090 L 187.630 287.247 188.437 289.294 C 191.044 295.907,200.248 300.795,203.890 297.500 C 204.315 297.115,204.829 296.800,205.031 296.800 C 205.612 296.800,211.200 291.392,211.200 290.831 C 211.200 290.553,211.560 289.869,212.000 289.309 C 213.979 286.793,213.977 286.793,201.700 286.867 C 195.595 286.904,189.932 287.005,189.115 287.090 M135.500 288.298 C 131.615 288.446,131.039 289.062,132.745 291.246 C 133.155 291.771,133.628 292.650,133.796 293.200 C 133.964 293.750,134.346 294.470,134.644 294.800 C 134.942 295.130,135.775 296.058,136.493 296.863 C 138.617 299.239,143.202 299.261,145.554 296.906 C 147.067 295.391,150.917 288.914,150.606 288.409 C 150.364 288.019,144.048 287.972,135.500 288.298 M92.927 307.053 C 92.301 309.351,92.587 322.700,93.279 323.487 C 93.623 323.879,94.039 324.650,94.203 325.200 C 94.709 326.903,97.943 330.400,99.011 330.400 C 99.533 330.400,100.137 330.715,100.352 331.100 C 100.672 331.671,101.392 331.818,104.272 331.896 C 106.663 331.961,107.542 331.873,107.000 331.624 C 106.560 331.422,104.997 331.244,103.527 331.228 C 101.242 331.204,100.818 331.087,100.606 330.420 C 100.470 329.992,100.052 329.544,99.678 329.425 C 99.303 329.306,98.637 328.723,98.198 328.129 C 97.759 327.536,96.995 326.608,96.500 326.067 C 96.005 325.526,95.600 324.852,95.600 324.570 C 95.600 324.288,95.365 323.819,95.078 323.529 C 94.121 322.561,93.985 321.545,93.783 313.870 C 93.575 306.008,93.460 305.093,92.927 307.053 M231.232 318.610 C 230.700 318.902,230.106 319.424,229.912 319.771 C 229.719 320.117,229.299 320.400,228.980 320.400 C 228.661 320.400,228.400 320.580,228.400 320.800 C 228.400 321.047,230.467 321.200,233.800 321.200 C 239.362 321.200,239.842 321.042,238.460 319.660 C 236.881 318.081,233.176 317.542,231.232 318.610 M168.600 320.212 L 167.400 321.196 170.300 321.198 C 173.651 321.200,173.760 321.102,171.616 320.008 C 169.721 319.041,170.057 319.018,168.600 320.212 M296.200 324.051 C 293.560 324.237,290.770 324.572,290.000 324.796 C 288.108 325.347,283.744 325.993,281.886 325.997 C 281.053 325.999,279.951 326.276,279.437 326.612 C 278.879 326.978,276.862 327.367,274.434 327.578 C 272.195 327.773,270.110 328.143,269.798 328.401 C 269.092 328.987,254.895 329.688,246.800 329.536 C 235.846 329.331,216.973 329.687,221.200 330.019 C 224.615 330.287,230.640 330.427,234.400 330.325 C 235.170 330.304,236.790 330.524,238.000 330.815 C 239.810 331.250,243.496 331.473,251.400 331.628 C 257.483 331.747,272.375 330.413,276.259 329.401 C 277.529 329.071,279.040 328.800,279.617 328.800 C 280.193 328.800,281.821 328.457,283.233 328.037 C 284.645 327.617,287.960 327.062,290.600 326.804 C 293.240 326.545,295.801 326.175,296.290 325.980 C 296.780 325.785,300.368 325.521,304.263 325.392 C 311.810 325.142,312.658 324.991,311.154 324.157 C 310.064 323.553,303.905 323.509,296.200 324.051 M161.800 331.600 C 161.322 331.805,164.822 331.955,170.500 331.972 C 176.585 331.990,180.000 331.856,180.000 331.600 C 180.000 331.102,162.958 331.102,161.800 331.600 M188.200 331.600 C 188.520 332.118,198.398 332.118,199.200 331.600 C 199.602 331.340,197.849 331.210,193.876 331.206 C 190.028 331.202,188.039 331.340,188.200 331.600 M141.800 332.863 C 137.840 333.073,128.795 333.169,121.700 333.077 C 109.756 332.922,105.554 333.202,111.100 333.784 C 112.365 333.916,114.390 334.220,115.600 334.459 C 116.810 334.698,118.880 335.049,120.200 335.240 C 123.095 335.659,138.831 335.281,140.800 334.744 C 141.570 334.535,145.056 334.200,148.547 334.002 C 152.037 333.803,154.992 333.541,155.113 333.420 C 156.050 332.484,152.096 332.318,141.800 332.863 " stroke="none" fill="#ecf3f2" fill-rule="evenodd"></path><path id="path3" d="M96.400 111.549 C 96.070 111.748,94.991 112.043,94.002 112.207 C 90.683 112.754,85.840 116.439,83.800 119.969 C 83.399 120.663,83.247 120.854,81.453 122.913 C 80.920 123.525,80.370 124.633,80.231 125.374 C 80.092 126.116,79.736 126.816,79.440 126.929 C 79.143 127.043,78.773 127.826,78.617 128.668 C 78.461 129.511,78.097 130.740,77.807 131.400 C 76.940 133.374,76.814 134.440,77.078 137.565 C 77.370 141.024,77.787 140.466,78.224 136.033 C 78.761 130.584,79.293 132.443,79.143 139.250 L 79.000 145.800 80.052 145.922 C 81.969 146.144,83.322 144.505,83.415 141.846 C 83.641 135.387,94.280 125.200,100.800 125.200 C 104.205 125.200,111.492 130.488,113.660 134.530 C 113.957 135.085,114.796 136.587,115.524 137.869 C 116.252 139.151,116.952 140.740,117.080 141.400 C 117.441 143.264,117.888 143.885,119.081 144.185 C 120.963 144.657,121.600 143.381,121.600 139.139 C 121.600 136.103,121.730 135.392,122.467 134.395 C 123.386 133.152,122.752 129.264,121.359 127.599 C 121.082 127.269,120.656 126.549,120.413 125.999 C 118.747 122.240,110.382 114.000,108.232 114.000 C 107.982 114.000,107.333 113.685,106.789 113.300 C 105.137 112.131,97.557 110.853,96.400 111.549 M305.600 112.404 C 304.170 112.564,302.190 113.074,301.200 113.538 C 300.210 114.003,299.113 114.386,298.762 114.391 C 298.411 114.396,297.798 114.760,297.400 115.200 C 297.002 115.640,296.461 116.000,296.198 116.000 C 295.031 116.000,288.000 124.447,288.000 125.849 C 288.000 126.130,287.758 126.504,287.463 126.680 C 287.168 126.856,286.710 128.120,286.445 129.489 C 286.181 130.858,285.700 132.478,285.377 133.089 C 283.751 136.162,286.276 144.515,288.984 145.023 C 290.892 145.381,291.995 144.440,292.014 142.438 C 292.021 141.647,292.375 140.280,292.800 139.400 C 293.225 138.520,293.579 137.503,293.586 137.141 C 293.602 136.394,295.436 132.783,296.855 130.708 C 300.824 124.901,309.677 121.311,315.385 123.195 C 318.214 124.129,324.434 131.951,325.086 135.394 C 325.211 136.057,325.571 137.111,325.886 137.736 C 326.213 138.386,326.582 140.868,326.749 143.545 C 327.054 148.424,327.258 149.200,328.238 149.200 C 331.571 149.200,334.634 140.887,332.888 136.580 C 332.447 135.491,331.724 133.520,331.283 132.200 C 329.622 127.236,329.067 125.924,328.541 125.722 C 328.243 125.608,328.000 125.119,328.000 124.635 C 328.000 123.585,326.652 121.658,324.198 119.200 C 323.209 118.210,321.666 116.635,320.768 115.700 C 319.868 114.763,318.759 114.000,318.299 114.000 C 317.839 114.000,317.177 113.741,316.827 113.424 C 316.261 112.913,310.386 111.910,308.810 112.057 C 308.475 112.088,307.030 112.244,305.600 112.404 M315.627 117.444 C 323.181 119.684,327.491 124.838,329.232 133.714 C 330.316 139.237,330.276 143.724,329.133 144.867 C 328.008 145.992,327.782 145.464,327.374 140.752 C 327.097 137.557,325.717 132.919,324.651 131.600 C 324.384 131.270,323.924 130.516,323.628 129.925 C 322.864 128.395,318.114 123.280,316.851 122.627 C 308.985 118.559,295.117 126.360,292.989 136.052 C 292.827 136.787,292.443 137.773,292.135 138.244 C 291.826 138.714,291.464 140.027,291.330 141.161 C 291.058 143.459,290.765 143.823,289.663 143.234 C 288.415 142.566,287.861 140.636,288.144 137.935 C 289.568 124.303,303.565 113.868,315.627 117.444 M103.427 118.034 C 106.523 118.599,110.211 120.400,112.144 122.290 C 113.768 123.879,117.189 128.371,117.196 128.925 C 117.198 129.103,117.633 130.183,118.161 131.325 C 119.225 133.621,120.643 140.389,120.267 141.370 C 119.904 142.315,118.127 141.363,117.800 140.050 C 117.657 139.472,116.878 138.036,116.070 136.858 C 115.261 135.680,114.420 134.420,114.200 134.058 C 109.756 126.745,101.374 122.200,97.389 124.943 C 96.955 125.242,95.925 125.706,95.100 125.974 C 94.275 126.242,93.600 126.599,93.600 126.767 C 93.600 126.934,93.195 127.263,92.700 127.497 C 90.002 128.774,84.272 135.098,83.308 137.862 C 83.075 138.532,82.435 139.529,81.886 140.078 L 80.889 141.075 80.663 139.438 C 80.366 137.287,81.753 131.354,83.320 128.072 C 86.895 120.588,95.069 116.507,103.427 118.034 M230.484 139.652 C 228.170 140.319,227.802 142.559,229.569 145.231 C 230.212 146.204,230.871 147.540,231.032 148.200 C 231.194 148.860,231.551 149.760,231.825 150.200 C 232.099 150.640,232.451 151.990,232.606 153.200 C 232.762 154.410,233.140 156.009,233.447 156.754 C 233.753 157.499,234.182 159.659,234.398 161.554 C 234.614 163.449,234.972 165.625,235.193 166.389 C 236.578 171.177,236.628 187.042,235.267 190.083 C 234.684 191.386,234.432 193.199,234.220 197.600 C 234.066 200.790,233.728 203.772,233.470 204.226 C 231.469 207.740,229.448 209.600,227.628 209.600 C 226.613 209.600,223.200 208.044,223.200 207.581 C 223.200 207.372,222.775 207.200,222.255 207.200 C 221.457 207.200,221.341 207.041,221.507 206.174 C 221.646 205.448,221.468 204.983,220.897 204.583 C 220.454 204.273,219.979 203.570,219.841 203.021 C 219.703 202.472,219.233 201.832,218.795 201.597 C 218.358 201.363,218.000 201.000,218.000 200.789 C 218.000 200.579,217.370 199.582,216.600 198.573 C 215.830 197.564,215.090 196.300,214.955 195.765 C 214.235 192.895,208.400 192.744,208.400 195.595 C 208.400 195.978,208.067 196.721,207.660 197.246 C 207.037 198.049,206.877 199.247,206.657 204.800 C 206.432 210.485,206.271 211.659,205.498 213.264 C 203.471 217.471,197.534 216.238,196.631 211.422 C 196.345 209.901,195.791 209.870,195.197 211.341 C 194.978 211.884,194.841 209.943,194.825 206.063 C 194.796 199.055,194.670 198.718,191.409 196.984 C 188.698 195.543,185.200 196.679,185.200 199.000 C 185.200 199.308,184.955 199.704,184.657 199.880 C 184.358 200.056,183.899 200.859,183.637 201.665 C 183.375 202.470,182.900 203.230,182.581 203.352 C 182.261 203.475,182.000 203.824,182.000 204.129 C 182.000 204.434,181.550 205.169,181.000 205.762 C 180.450 206.356,180.000 207.198,180.000 207.633 C 180.000 208.069,179.730 208.529,179.400 208.655 C 179.066 208.783,178.800 209.378,178.800 209.994 C 178.800 211.860,176.319 213.065,173.903 212.372 C 172.661 212.016,170.000 209.566,170.000 208.778 C 170.000 208.570,169.626 208.400,169.168 208.400 C 168.458 208.400,168.374 208.570,168.592 209.562 C 168.733 210.203,168.666 210.835,168.443 210.973 C 168.184 211.133,168.066 210.184,168.114 208.311 C 168.167 206.205,168.008 205.124,167.539 204.400 C 165.600 201.409,165.018 173.809,166.528 156.463 C 167.298 147.628,167.238 147.200,165.229 147.200 C 163.046 147.200,159.899 152.138,159.372 156.392 C 159.222 157.597,158.859 159.265,158.566 160.097 C 158.272 160.929,157.846 163.749,157.619 166.364 C 157.392 168.978,157.117 171.361,157.007 171.659 C 156.546 172.908,155.606 181.658,155.594 184.800 C 155.587 186.670,155.401 190.450,155.180 193.200 C 154.959 195.950,154.762 200.384,154.742 203.053 C 154.722 205.722,154.572 208.122,154.408 208.386 C 154.245 208.651,154.250 209.617,154.420 210.534 C 154.590 211.450,154.941 213.504,155.200 215.099 C 155.460 216.693,155.823 218.090,156.007 218.204 C 156.191 218.318,156.561 219.084,156.829 219.906 C 157.097 220.728,157.650 221.829,158.058 222.354 C 158.466 222.879,158.800 223.635,158.800 224.034 C 158.800 224.433,159.044 224.904,159.342 225.080 C 159.639 225.256,160.096 225.805,160.356 226.300 C 160.616 226.795,161.018 227.200,161.251 227.200 C 161.484 227.200,162.105 227.539,162.632 227.954 C 164.327 229.287,173.782 229.343,175.365 228.029 C 175.648 227.794,176.840 227.420,178.013 227.197 C 179.200 226.972,180.476 226.439,180.889 225.996 C 181.855 224.960,184.533 224.902,185.277 225.902 C 185.937 226.787,188.696 228.590,190.005 228.990 C 190.552 229.158,191.270 229.520,191.600 229.796 C 194.287 232.040,205.327 233.264,208.800 231.704 C 209.790 231.259,211.022 230.766,211.538 230.609 C 212.961 230.174,215.650 228.241,217.066 226.636 C 218.520 224.986,219.591 224.832,221.501 225.996 C 225.775 228.602,237.157 228.770,239.541 226.262 C 239.992 225.788,240.568 225.193,240.820 224.940 C 242.228 223.531,242.806 222.717,243.029 221.827 C 243.166 221.280,243.530 220.624,243.838 220.368 C 244.146 220.113,244.665 219.003,244.992 217.901 C 245.320 216.799,245.765 215.683,245.982 215.421 C 247.452 213.650,248.545 195.820,247.277 194.293 C 246.948 193.897,246.537 191.018,246.168 186.531 C 245.845 182.609,245.418 178.320,245.218 177.000 C 244.141 169.888,243.515 166.571,243.030 165.411 C 242.733 164.700,242.360 163.347,242.201 162.403 C 242.041 161.460,241.575 159.948,241.164 159.044 C 240.754 158.140,240.413 156.950,240.406 156.400 C 240.400 155.850,240.129 154.890,239.804 154.267 C 239.479 153.643,239.017 152.383,238.778 151.467 C 238.262 149.486,236.532 144.849,235.993 144.000 C 235.783 143.670,235.360 142.842,235.051 142.159 C 234.587 141.132,232.431 139.107,231.938 139.236 C 231.862 139.256,231.208 139.443,230.484 139.652 M233.927 142.893 C 235.589 146.420,236.400 148.372,236.414 148.878 C 236.421 149.165,236.775 150.120,237.200 151.000 C 237.625 151.880,237.979 152.832,237.986 153.116 C 237.994 153.400,238.338 154.300,238.751 155.116 C 239.164 155.932,239.623 157.230,239.771 158.000 C 239.918 158.770,240.463 161.020,240.982 163.000 C 243.833 173.883,244.584 180.834,244.027 191.200 C 242.896 212.235,240.684 219.678,234.600 222.918 C 230.517 225.093,222.926 222.852,219.432 218.440 C 216.874 215.210,215.711 215.688,212.709 221.200 C 212.649 221.310,211.970 221.866,211.200 222.436 C 203.514 228.120,191.773 226.276,188.061 218.800 C 187.787 218.250,187.228 217.358,186.818 216.818 L 186.072 215.835 183.177 218.566 C 173.780 227.430,161.424 222.141,158.496 208.000 C 157.334 202.390,157.954 173.473,159.422 164.800 C 159.738 162.930,159.998 160.817,159.999 160.105 C 160.002 156.391,163.963 147.853,165.149 149.002 C 165.610 149.448,165.074 170.215,164.412 177.600 C 162.906 194.403,165.243 211.816,169.525 215.684 C 173.717 219.472,178.249 216.540,184.187 206.200 C 188.702 198.337,193.196 198.872,193.203 207.273 C 193.211 216.795,195.080 220.144,200.375 220.125 C 206.199 220.105,208.047 217.745,208.411 209.867 C 208.772 202.041,210.247 199.066,213.468 199.665 C 214.169 199.796,219.147 206.680,220.652 209.600 C 222.542 213.267,226.281 215.644,229.233 215.053 C 230.562 214.788,233.200 212.946,233.200 212.284 C 233.200 212.052,233.464 211.571,233.787 211.214 C 234.493 210.434,235.455 204.251,235.811 198.200 C 235.953 195.780,236.496 191.257,237.016 188.149 C 237.841 183.216,237.912 182.021,237.569 178.749 C 237.353 176.687,236.932 172.462,236.634 169.360 C 236.336 166.258,235.910 163.378,235.687 162.960 C 235.465 162.542,235.151 160.940,234.990 159.400 C 234.828 157.860,234.385 155.790,234.004 154.800 C 233.623 153.810,233.185 152.010,233.031 150.800 C 232.751 148.604,230.961 144.000,230.388 144.000 C 229.200 144.000,229.665 141.301,230.935 140.821 C 232.167 140.356,233.004 140.935,233.927 142.893 M204.890 142.001 C 203.873 142.621,202.875 142.800,200.423 142.800 C 196.540 142.800,195.868 143.006,196.415 144.028 C 196.795 144.737,196.618 144.772,193.052 144.688 C 190.056 144.618,189.136 144.733,188.544 145.251 C 188.135 145.609,186.945 146.025,185.900 146.176 C 184.121 146.432,184.000 146.525,184.000 147.637 C 184.000 148.291,183.724 149.487,183.386 150.295 C 181.617 154.530,185.984 156.996,191.065 154.631 C 192.250 154.079,194.568 153.493,196.506 153.256 C 198.362 153.029,200.493 152.577,201.241 152.251 C 203.593 151.227,206.496 150.356,209.600 149.744 C 214.490 148.780,215.128 147.226,212.165 143.500 C 210.045 140.835,207.623 140.336,204.890 142.001 M211.865 145.422 C 213.857 146.941,213.206 147.753,209.305 148.617 C 206.333 149.275,204.532 149.845,199.900 151.592 C 198.745 152.028,196.450 152.501,194.800 152.643 C 192.985 152.800,191.308 153.198,190.553 153.651 C 188.767 154.723,185.773 154.672,185.177 153.558 C 183.693 150.784,186.909 148.494,193.800 147.417 C 194.680 147.280,195.867 146.985,196.437 146.761 C 197.869 146.200,207.052 144.503,208.962 144.446 C 210.071 144.413,210.913 144.696,211.865 145.422 M200.400 158.809 C 197.870 158.966,194.298 159.332,192.462 159.622 L 189.124 160.150 188.162 162.325 C 186.183 166.799,189.223 170.985,192.550 168.368 C 193.725 167.443,206.340 167.537,208.282 168.485 C 211.807 170.206,212.226 163.321,208.745 160.877 C 208.335 160.590,208.000 160.090,208.000 159.767 C 208.000 159.183,206.376 158.344,205.474 158.462 C 205.213 158.497,202.930 158.653,200.400 158.809 M208.256 163.096 C 209.598 164.053,210.313 165.847,209.626 166.534 C 209.355 166.805,206.451 166.914,201.411 166.843 C 196.460 166.773,193.122 166.896,192.265 167.179 C 188.230 168.510,186.862 164.381,190.800 162.755 C 193.680 161.566,206.461 161.815,208.256 163.096 M203.200 217.715 C 203.530 217.837,202.369 217.951,200.620 217.968 C 198.639 217.988,197.583 217.859,197.820 217.625 C 198.270 217.182,201.624 216.892,202.200 217.246 C 202.420 217.382,202.870 217.593,203.200 217.715 M327.250 219.107 C 326.658 220.213,325.987 243.000,326.464 245.800 C 326.617 246.702,323.316 246.790,321.131 245.943 C 318.363 244.870,308.000 246.763,308.000 248.341 C 308.000 249.883,309.676 250.401,317.200 251.183 C 330.578 252.574,340.553 258.595,339.426 264.600 L 339.164 266.000 336.882 265.984 C 334.631 265.968,334.615 265.960,335.700 265.371 C 336.305 265.043,336.800 264.484,336.800 264.129 C 336.800 263.309,332.046 263.604,330.258 264.534 C 329.601 264.876,327.308 265.249,324.858 265.411 C 322.516 265.567,320.411 265.845,320.181 266.029 C 319.950 266.213,316.530 266.563,312.581 266.806 C 308.631 267.049,303.510 267.431,301.200 267.654 C 294.537 268.299,257.082 268.779,232.400 268.535 C 209.504 268.310,184.615 268.826,179.600 269.630 C 178.170 269.859,174.840 270.115,172.200 270.197 C 160.388 270.566,148.710 271.219,148.084 271.545 C 147.708 271.741,142.360 272.111,136.200 272.369 C 130.040 272.626,124.190 273.001,123.200 273.202 C 122.210 273.403,119.060 273.769,116.200 274.013 C 111.084 274.451,105.825 275.777,104.400 276.989 C 104.070 277.269,103.170 277.613,102.400 277.753 C 100.626 278.076,98.486 280.237,98.153 282.041 C 98.015 282.788,97.667 283.779,97.380 284.242 C 97.093 284.705,96.664 286.325,96.428 287.842 C 96.192 289.359,95.828 291.500,95.619 292.600 C 93.088 305.917,93.583 320.716,96.717 325.400 C 99.052 328.891,101.894 330.577,106.157 331.001 C 107.674 331.152,109.654 331.564,110.557 331.916 C 113.851 333.200,139.020 333.007,151.400 331.603 C 153.160 331.403,161.530 331.135,170.000 331.008 C 178.470 330.880,187.920 330.602,191.000 330.389 C 199.494 329.803,222.815 329.210,243.800 329.047 C 262.879 328.899,268.198 328.529,276.600 326.771 C 277.700 326.540,279.680 326.169,281.000 325.945 C 282.320 325.721,284.570 325.276,286.000 324.956 C 287.430 324.636,290.490 324.203,292.800 323.994 C 295.110 323.785,299.006 323.403,301.458 323.147 C 306.334 322.636,309.881 322.876,311.534 323.829 C 316.705 326.810,317.600 327.912,317.600 331.301 C 317.600 333.628,315.907 336.800,314.665 336.800 C 314.444 336.800,313.915 337.115,313.490 337.500 C 312.784 338.138,311.385 338.206,297.658 338.263 C 285.375 338.314,282.105 338.444,279.915 338.968 C 278.439 339.321,274.399 339.799,270.938 340.029 C 267.477 340.260,264.468 340.558,264.252 340.692 C 263.359 341.243,251.872 341.716,241.060 341.645 C 230.747 341.578,212.915 342.435,211.927 343.045 C 211.761 343.148,208.964 343.325,205.712 343.438 C 202.460 343.552,196.920 343.988,193.400 344.408 C 188.793 344.958,183.357 345.220,174.000 345.343 C 163.502 345.481,160.769 345.629,159.800 346.114 C 159.140 346.444,157.269 346.836,155.643 346.987 C 153.975 347.141,152.059 347.595,151.249 348.030 C 150.458 348.453,149.505 348.800,149.130 348.800 C 148.159 348.800,147.874 349.464,148.702 349.795 C 149.747 350.214,168.881 350.756,183.427 350.779 C 190.481 350.791,197.231 350.977,198.427 351.194 C 201.553 351.761,214.467 352.917,224.712 353.546 C 228.073 353.753,231.043 354.097,231.312 354.312 C 231.580 354.527,233.008 354.828,234.484 354.982 C 236.183 355.158,237.528 355.543,238.148 356.030 C 238.903 356.624,239.769 356.800,241.937 356.800 C 245.535 356.800,246.697 357.256,247.401 358.941 C 247.751 359.779,248.428 360.480,249.190 360.796 C 252.128 362.013,252.843 364.363,250.922 366.487 C 250.400 367.063,250.372 367.466,250.749 368.965 C 250.997 369.949,251.206 371.620,251.213 372.677 C 251.220 373.735,251.490 374.949,251.813 375.376 C 252.136 375.804,252.400 376.546,252.400 377.027 C 252.400 378.597,253.463 379.026,254.134 377.727 C 255.021 376.013,255.941 375.379,259.000 374.374 C 261.027 373.708,262.251 373.006,263.433 371.827 C 264.331 370.932,266.199 369.130,267.584 367.823 C 270.165 365.386,271.005 364.256,272.415 361.317 C 272.859 360.391,273.378 359.537,273.567 359.420 C 273.756 359.303,274.024 358.761,274.161 358.214 C 275.027 354.764,277.896 353.054,283.600 352.591 C 285.250 352.456,287.389 352.065,288.353 351.720 C 289.827 351.193,291.008 351.149,295.753 351.443 C 306.189 352.090,311.839 351.550,315.594 349.544 C 316.361 349.135,317.282 348.800,317.640 348.800 C 317.999 348.800,318.750 348.440,319.309 348.000 C 319.869 347.560,320.514 347.200,320.742 347.200 C 321.100 347.200,322.348 346.231,323.800 344.825 C 324.770 343.887,325.277 343.096,325.680 341.891 C 325.919 341.181,326.377 340.295,326.699 339.922 C 328.597 337.724,328.344 326.800,326.395 326.800 C 326.225 326.800,325.975 326.354,325.838 325.809 C 325.590 324.822,322.192 320.335,321.476 320.050 C 321.269 319.968,320.731 319.531,320.280 319.080 C 317.331 316.131,310.679 314.566,303.137 315.048 C 298.055 315.373,297.607 315.345,297.316 314.691 C 296.945 313.857,297.746 301.018,298.333 298.400 C 298.555 297.410,298.856 295.340,299.003 293.800 C 299.149 292.260,299.603 289.920,300.012 288.600 C 300.420 287.280,300.857 285.553,300.984 284.761 L 301.213 283.323 311.107 283.066 C 316.548 282.925,322.260 282.622,323.800 282.393 C 325.340 282.163,328.490 281.742,330.800 281.455 C 333.110 281.169,335.360 280.745,335.800 280.512 C 336.240 280.280,337.621 279.880,338.869 279.623 C 340.117 279.366,341.354 278.896,341.618 278.578 C 341.882 278.260,342.321 278.000,342.594 278.000 C 343.193 278.000,345.719 276.097,347.485 274.315 C 353.029 268.722,351.288 256.309,344.605 253.786 C 339.280 251.775,337.385 249.927,336.353 245.737 C 336.090 244.672,335.634 243.445,335.338 243.011 C 335.042 242.577,334.800 241.850,334.800 241.396 C 334.800 240.941,334.454 239.891,334.031 239.061 C 333.608 238.232,333.147 236.799,333.006 235.877 C 332.865 234.954,332.413 232.940,332.003 231.400 C 331.593 229.860,331.000 226.878,330.686 224.774 C 329.873 219.332,328.416 216.928,327.250 219.107 M328.591 222.100 C 329.368 226.531,331.094 233.965,331.773 235.800 C 332.098 236.680,332.373 237.765,332.382 238.211 C 332.392 238.657,332.664 239.399,332.987 239.860 C 333.310 240.321,333.764 241.576,333.997 242.649 C 335.612 250.084,336.885 251.678,343.702 254.802 C 349.738 257.568,351.427 267.121,346.937 273.098 C 345.634 274.833,339.098 278.633,336.800 278.991 C 335.810 279.145,334.235 279.523,333.300 279.831 C 332.365 280.139,328.585 280.582,324.900 280.816 C 321.215 281.051,316.670 281.411,314.800 281.618 C 312.930 281.824,309.011 281.995,306.091 281.997 C 300.954 282.000,300.772 282.029,300.447 282.900 C 299.321 285.916,299.058 286.839,298.707 289.000 C 298.493 290.320,298.070 292.120,297.768 293.000 C 297.466 293.880,296.938 297.750,296.594 301.600 C 296.251 305.450,295.883 308.887,295.777 309.239 C 295.398 310.501,295.488 315.648,295.896 316.056 C 296.151 316.311,299.410 316.514,304.257 316.577 C 315.151 316.718,318.331 317.882,322.667 323.314 C 328.219 330.267,328.506 335.612,323.713 342.751 C 321.804 345.595,319.905 346.694,312.800 349.065 L 309.400 350.200 299.516 350.081 C 290.770 349.976,289.247 350.054,286.276 350.759 C 284.430 351.198,281.948 351.667,280.760 351.802 C 279.572 351.938,278.198 352.130,277.707 352.230 C 276.624 352.450,274.000 354.686,274.000 355.389 C 274.000 356.053,271.403 361.113,270.615 361.984 C 270.277 362.357,270.000 362.861,270.000 363.103 C 270.000 363.551,266.377 367.388,264.200 369.246 C 263.540 369.809,262.411 370.929,261.690 371.735 C 259.730 373.927,255.840 373.793,256.755 371.564 C 257.285 370.270,259.461 362.176,259.778 360.315 C 259.917 359.499,260.471 357.834,261.010 356.617 L 261.989 354.403 259.461 353.257 C 258.071 352.627,256.049 351.983,254.967 351.826 C 253.885 351.669,250.120 350.850,246.600 350.007 C 243.080 349.164,239.615 348.353,238.900 348.205 C 237.478 347.911,237.200 347.373,238.300 347.046 C 245.932 344.775,253.470 344.004,268.200 343.988 C 275.460 343.980,282.660 343.805,284.200 343.598 C 285.740 343.391,291.050 343.113,296.000 342.981 C 310.686 342.589,315.819 340.746,318.228 335.000 C 320.258 330.160,318.774 327.001,312.775 323.384 C 312.396 323.156,311.783 322.718,311.413 322.411 C 310.379 321.552,304.859 321.442,298.800 322.158 C 289.588 323.248,285.041 323.913,283.974 324.327 C 283.410 324.545,281.880 324.849,280.574 325.002 C 279.268 325.155,276.940 325.602,275.399 325.994 C 273.858 326.387,270.438 326.826,267.799 326.970 C 265.160 327.113,260.750 327.402,258.000 327.612 C 255.250 327.821,244.540 328.071,234.200 328.166 C 210.962 328.380,181.052 329.076,171.200 329.632 C 167.130 329.862,159.762 330.210,154.826 330.407 C 149.890 330.604,143.860 331.050,141.426 331.400 C 135.272 332.283,115.843 332.104,112.000 331.129 C 110.570 330.766,108.238 330.259,106.818 330.002 C 97.515 328.319,94.568 323.417,95.357 310.935 C 95.494 308.771,95.706 304.970,95.828 302.489 C 96.267 293.541,98.935 287.780,103.967 284.910 C 104.975 284.335,106.070 283.662,106.400 283.413 C 107.296 282.740,111.146 281.284,113.247 280.824 C 114.264 280.602,115.578 280.236,116.169 280.012 C 116.760 279.787,119.529 279.328,122.322 278.991 C 125.115 278.654,127.670 278.271,128.000 278.140 C 128.330 278.008,143.090 277.753,160.800 277.572 C 179.484 277.382,194.343 277.063,196.200 276.814 C 197.960 276.577,204.366 276.026,210.436 275.589 C 216.505 275.152,222.805 274.621,224.436 274.409 C 226.066 274.198,233.340 274.014,240.600 274.002 C 247.860 273.989,260.100 273.701,267.800 273.362 C 275.500 273.023,290.080 272.591,300.200 272.403 C 323.590 271.968,327.950 271.529,332.362 269.164 C 333.146 268.744,334.066 268.400,334.405 268.400 C 334.744 268.400,335.377 268.156,335.811 267.857 C 336.245 267.558,337.276 267.190,338.101 267.038 C 339.684 266.748,341.308 264.528,340.909 263.200 C 339.260 257.715,334.688 254.280,326.226 252.167 C 324.920 251.841,323.648 251.406,323.399 251.200 C 323.151 250.993,321.298 250.638,319.282 250.409 C 312.685 249.662,309.205 248.434,311.361 247.615 C 313.015 246.986,323.969 247.084,325.224 247.739 C 326.816 248.570,328.179 247.910,327.791 246.496 C 327.327 244.803,327.097 232.849,327.406 226.500 C 327.673 221.009,328.114 219.373,328.591 222.100 M283.800 271.002 C 284.020 271.076,279.520 271.117,273.800 271.093 C 267.680 271.067,264.881 270.955,267.000 270.821 C 270.513 270.598,283.004 270.733,283.800 271.002 M222.400 272.283 L 223.400 272.555 222.400 272.799 C 221.031 273.134,219.341 272.810,220.063 272.352 C 220.713 271.941,221.099 271.929,222.400 272.283 M201.600 274.400 C 201.994 274.655,198.634 274.763,191.800 274.715 C 184.108 274.661,182.546 274.579,185.800 274.400 C 193.225 273.992,200.968 273.992,201.600 274.400 M116.305 278.275 C 115.922 278.375,115.202 278.379,114.705 278.283 C 114.207 278.187,114.520 278.105,115.400 278.101 C 116.280 278.096,116.687 278.175,116.305 278.275 M266.400 282.021 C 263.430 282.178,258.390 282.345,255.200 282.393 C 246.623 282.521,245.893 283.054,248.288 287.432 C 248.900 288.549,249.738 290.079,250.151 290.832 C 254.647 299.020,262.994 302.901,268.151 299.200 C 269.950 297.910,273.108 294.098,273.952 292.200 C 274.147 291.760,275.318 289.900,276.554 288.066 C 280.889 281.632,280.314 281.289,266.400 282.021 M277.095 283.127 C 277.815 283.584,277.172 285.476,275.496 287.834 C 274.728 288.915,273.787 290.413,273.407 291.162 C 273.026 291.912,272.556 292.722,272.361 292.962 C 272.166 293.203,271.280 294.346,270.393 295.502 C 264.636 302.998,255.743 299.811,249.808 288.124 C 247.840 284.250,248.129 283.622,251.914 283.547 C 253.391 283.518,258.110 283.370,262.400 283.220 C 274.357 282.800,276.559 282.786,277.095 283.127 M199.831 285.671 C 191.909 285.892,187.271 286.175,186.931 286.457 C 185.698 287.481,187.265 291.483,190.184 294.767 C 191.334 296.061,191.749 296.455,193.667 298.075 C 198.365 302.046,208.783 298.359,212.529 291.400 C 214.659 287.443,214.716 284.991,212.671 285.263 C 212.412 285.297,206.634 285.481,199.831 285.671 M137.000 286.386 C 130.442 286.767,129.363 287.575,130.945 290.920 C 131.504 292.103,132.241 293.302,132.581 293.584 C 132.922 293.867,133.200 294.320,133.200 294.591 C 133.200 295.429,135.900 298.673,137.335 299.560 C 140.653 301.610,145.879 299.637,148.800 295.230 C 149.130 294.733,149.805 293.767,150.300 293.085 C 150.795 292.403,151.200 291.682,151.200 291.484 C 151.200 291.286,151.572 290.601,152.027 289.963 C 154.660 286.264,151.603 285.536,137.000 286.386 M213.063 287.020 C 213.938 289.301,206.789 297.299,202.911 298.376 C 197.479 299.884,191.842 296.829,188.428 290.525 C 186.468 286.906,186.510 286.850,191.300 286.698 C 204.641 286.277,212.824 286.398,213.063 287.020 M150.971 287.829 C 151.779 288.637,151.873 288.321,149.814 291.714 C 145.788 298.344,142.092 300.587,138.204 298.760 C 135.505 297.491,130.563 289.666,131.726 288.503 C 132.860 287.369,149.914 286.771,150.971 287.829 M70.871 305.490 C 69.313 307.154,67.928 309.017,67.793 309.630 C 67.659 310.243,67.304 310.948,67.006 311.195 C 66.707 311.443,66.342 312.359,66.195 313.231 C 66.047 314.103,65.671 315.072,65.357 315.385 C 63.650 317.093,63.674 331.042,65.389 333.757 C 65.682 334.221,66.052 335.230,66.210 336.000 C 66.369 336.770,66.837 337.878,67.250 338.462 C 67.662 339.046,68.000 339.739,68.000 340.003 C 68.000 341.297,74.582 348.023,76.418 348.606 C 76.848 348.742,77.200 349.001,77.200 349.182 C 77.200 349.951,82.390 350.533,83.147 349.848 C 84.045 349.035,88.563 348.905,88.302 349.700 C 88.212 349.975,87.612 350.259,86.969 350.331 C 86.326 350.403,85.629 350.628,85.420 350.831 C 84.797 351.436,90.703 351.270,91.920 350.648 C 92.514 350.345,93.630 349.965,94.400 349.805 C 95.661 349.543,97.600 348.222,97.600 347.626 C 97.600 347.022,95.479 345.200,94.776 345.200 C 94.340 345.200,93.313 344.784,92.492 344.275 C 91.671 343.767,90.370 343.103,89.600 342.800 C 88.830 342.497,87.643 341.833,86.962 341.325 C 86.281 340.816,85.597 340.400,85.441 340.400 C 84.904 340.400,82.400 338.199,82.400 337.727 C 82.400 337.467,82.040 337.140,81.600 337.000 C 81.160 336.860,80.800 336.420,80.800 336.021 C 80.800 335.622,80.102 333.879,79.250 332.148 C 76.285 326.128,75.639 324.590,75.372 322.918 C 75.224 321.994,74.765 320.931,74.352 320.556 C 73.337 319.638,73.474 310.800,74.606 304.146 C 74.992 301.875,73.882 302.274,70.871 305.490 M72.121 315.234 C 71.722 318.607,73.491 325.579,76.173 331.200 C 79.525 338.227,82.161 341.153,87.948 344.267 C 90.628 345.710,90.674 346.043,88.303 346.830 C 77.049 350.565,66.158 334.546,68.994 318.428 C 69.862 313.501,72.666 310.636,72.121 315.234 M229.009 318.509 C 225.712 321.505,225.992 322.196,230.635 322.524 C 240.592 323.226,243.825 320.910,237.808 317.384 C 234.701 315.563,231.850 315.927,229.009 318.509 M237.094 318.186 C 239.107 319.157,240.070 320.490,239.308 321.252 C 238.753 321.807,228.200 321.513,228.200 320.942 C 228.200 320.691,229.100 319.752,230.200 318.857 C 232.613 316.893,234.111 316.747,237.094 318.186 M167.224 319.426 C 164.822 321.596,165.289 322.000,170.194 322.000 C 175.611 322.000,176.314 321.297,173.198 318.998 C 171.164 317.498,169.203 317.638,167.224 319.426 M172.785 320.016 L 174.170 321.200 171.718 321.200 C 170.369 321.200,169.026 321.288,168.733 321.396 C 167.349 321.904,166.984 320.824,168.200 319.820 C 169.780 318.515,171.094 318.571,172.785 320.016 M66.696 326.685 C 66.616 327.958,66.551 327.020,66.550 324.600 C 66.549 322.180,66.614 321.138,66.694 322.285 C 66.775 323.432,66.776 325.412,66.696 326.685 M258.830 354.910 C 258.813 355.070,258.800 356.201,258.800 357.424 C 258.800 358.948,258.661 359.561,258.357 359.373 C 258.090 359.209,258.006 358.522,258.144 357.650 C 258.271 356.852,258.212 355.939,258.014 355.619 C 257.815 355.300,257.747 354.885,257.863 354.698 C 258.105 354.307,258.875 354.476,258.830 354.910 " stroke="none" fill="#4ca182" fill-rule="evenodd"></path><path id="path4" d="M306.800 123.365 C 303.605 124.575,302.483 125.232,300.200 127.227 C 296.974 130.047,293.286 135.600,294.639 135.600 C 294.931 135.600,295.358 134.899,295.589 134.041 C 295.820 133.184,296.277 132.379,296.604 132.254 C 296.932 132.128,297.200 131.643,297.200 131.175 C 297.200 130.662,297.517 130.242,298.000 130.116 C 298.440 130.001,298.800 129.654,298.800 129.345 C 298.800 129.036,299.250 128.578,299.800 128.327 C 300.350 128.077,300.800 127.643,300.800 127.363 C 300.800 127.083,301.204 126.726,301.698 126.569 C 302.193 126.412,302.778 126.036,303.000 125.733 C 303.529 125.009,306.400 124.524,306.400 125.158 C 306.400 125.412,305.845 125.731,305.166 125.867 C 304.487 126.003,303.835 126.365,303.717 126.672 C 303.599 126.979,302.988 127.496,302.358 127.822 C 300.900 128.576,298.542 130.923,298.218 131.943 C 298.081 132.374,297.706 132.827,297.385 132.950 C 297.063 133.074,296.800 133.516,296.800 133.934 C 296.800 134.351,296.440 135.150,296.000 135.709 C 295.560 136.269,295.194 136.968,295.186 137.263 C 295.157 138.367,294.031 139.940,294.014 138.900 C 293.993 137.538,293.468 137.817,292.694 139.603 C 291.942 141.340,291.740 145.600,292.410 145.600 C 292.911 145.600,293.600 143.881,293.600 142.632 C 293.600 142.129,294.050 141.231,294.600 140.638 C 295.150 140.044,295.600 139.236,295.600 138.841 C 295.600 138.447,295.950 137.807,296.377 137.421 C 296.805 137.034,297.273 136.177,297.418 135.518 C 297.704 134.216,297.785 134.103,300.846 130.700 C 301.985 129.435,303.150 128.400,303.435 128.400 C 303.721 128.400,304.196 128.055,304.491 127.634 C 304.786 127.213,305.741 126.743,306.614 126.589 C 307.486 126.436,308.599 126.060,309.086 125.755 C 310.077 125.134,312.633 125.006,312.975 125.560 C 313.097 125.758,314.090 126.134,315.180 126.395 C 317.178 126.874,317.646 127.338,319.534 130.700 C 319.828 131.223,320.323 131.749,320.634 131.868 C 320.945 131.988,321.200 132.312,321.200 132.589 C 321.200 132.866,321.559 133.549,321.998 134.106 C 322.437 134.664,323.010 136.084,323.271 137.260 C 323.533 138.437,323.984 139.755,324.273 140.189 C 324.563 140.623,324.804 141.793,324.810 142.789 C 324.820 144.693,325.351 147.485,325.787 147.920 C 326.387 148.520,326.784 146.782,326.729 143.800 C 326.673 140.803,326.651 140.727,326.381 142.600 C 326.142 144.263,326.115 144.099,326.221 141.631 C 326.302 139.756,326.158 138.281,325.832 137.631 C 325.547 137.064,325.211 136.057,325.086 135.394 C 324.476 132.174,318.584 124.538,315.818 123.382 C 314.074 122.653,308.707 122.643,306.800 123.365 M315.000 123.600 C 315.519 123.823,314.353 123.954,311.676 123.972 C 309.022 123.990,307.641 123.857,307.800 123.600 C 308.099 123.116,313.875 123.116,315.000 123.600 M317.621 125.400 C 317.590 125.994,316.695 125.885,316.487 125.262 C 316.375 124.925,316.558 124.775,316.975 124.862 C 317.342 124.938,317.633 125.180,317.621 125.400 M97.600 126.040 L 95.800 126.798 97.800 126.518 C 100.302 126.169,100.875 126.169,103.600 126.513 L 105.800 126.791 103.800 125.996 C 101.379 125.033,99.969 125.043,97.600 126.040 M319.400 127.600 C 319.206 127.913,318.976 127.936,318.710 127.670 C 318.490 127.450,318.440 127.058,318.600 126.800 C 318.794 126.487,319.024 126.464,319.290 126.730 C 319.510 126.950,319.560 127.342,319.400 127.600 M92.600 128.721 C 87.383 132.815,84.598 136.291,83.618 139.931 C 82.859 142.752,84.610 144.002,85.816 141.500 C 86.161 140.785,86.764 139.628,87.156 138.930 C 88.038 137.359,95.038 130.400,95.736 130.400 C 96.016 130.400,96.855 129.950,97.600 129.400 C 100.018 127.616,104.485 128.689,107.188 131.704 C 107.745 132.325,108.875 133.546,109.700 134.417 C 110.525 135.288,111.200 136.156,111.200 136.345 C 111.200 136.534,111.648 137.348,112.195 138.155 C 112.742 138.961,113.306 140.111,113.449 140.710 C 113.591 141.310,113.932 142.070,114.205 142.400 C 114.479 142.730,115.000 143.585,115.362 144.300 C 115.724 145.015,116.151 145.597,116.310 145.594 C 118.500 145.548,117.418 140.822,113.885 135.000 C 112.258 132.319,105.549 125.637,106.071 127.218 C 106.177 127.538,106.609 127.981,107.032 128.203 C 108.157 128.793,110.000 130.620,110.000 131.146 C 110.000 131.396,110.258 131.600,110.573 131.600 C 110.888 131.600,111.260 131.960,111.400 132.400 C 111.540 132.841,112.002 133.387,112.427 133.614 C 112.852 133.842,113.200 134.373,113.200 134.793 C 113.200 135.214,113.650 136.044,114.200 136.638 C 114.750 137.231,115.202 137.916,115.205 138.158 C 115.208 138.401,115.319 139.005,115.452 139.500 C 115.626 140.150,115.521 140.400,115.074 140.400 C 114.733 140.400,114.331 139.995,114.182 139.500 C 112.640 134.400,105.758 128.094,101.351 127.743 C 97.394 127.427,88.880 133.144,87.174 137.262 C 86.908 137.905,86.370 138.602,85.978 138.812 C 85.586 139.022,85.146 139.735,85.001 140.397 C 84.685 141.834,84.000 141.999,84.000 140.637 C 84.000 138.363,90.247 130.000,91.945 130.000 C 92.180 130.000,92.565 129.640,92.800 129.200 C 93.035 128.760,93.452 128.400,93.725 128.400 C 93.999 128.400,94.530 128.040,94.907 127.600 C 96.027 126.292,95.156 126.716,92.600 128.721 M321.186 129.700 L 321.172 131.000 320.621 130.005 C 320.063 128.997,320.138 128.400,320.824 128.400 C 321.031 128.400,321.194 128.985,321.186 129.700 M229.443 147.033 C 229.023 148.127,229.178 150.773,229.741 152.121 C 230.039 152.833,230.414 155.103,230.576 157.164 C 230.737 159.225,231.213 161.989,231.634 163.308 C 232.160 164.952,232.400 166.861,232.400 169.390 C 232.400 174.437,233.158 185.621,233.567 186.600 C 233.750 187.040,234.099 187.895,234.342 188.500 C 236.525 193.943,237.083 174.077,234.991 165.400 C 234.673 164.080,234.379 162.190,234.339 161.200 C 234.275 159.629,234.248 159.578,234.125 160.800 C 234.048 161.570,234.269 164.180,234.615 166.600 C 235.437 172.345,236.149 183.683,235.802 185.528 C 235.299 188.211,234.751 185.870,234.637 180.550 C 234.572 177.547,234.358 175.421,234.103 175.263 C 233.858 175.112,233.499 172.101,233.255 168.154 C 233.008 164.141,232.581 160.582,232.223 159.554 C 231.086 156.286,230.893 149.472,232.015 152.200 C 232.331 152.968,232.345 152.965,232.372 152.121 C 232.387 151.638,231.950 150.396,231.400 149.362 C 230.850 148.327,230.400 147.238,230.400 146.940 C 230.400 146.196,229.739 146.260,229.443 147.033 M167.860 147.503 C 167.490 148.102,167.161 150.692,166.780 156.000 C 166.568 158.970,166.226 163.380,166.022 165.800 C 165.582 171.011,165.532 183.484,165.947 184.539 C 166.365 185.601,167.167 184.548,167.471 182.536 C 167.599 181.691,168.022 180.460,168.410 179.800 C 168.871 179.018,169.217 177.275,169.403 174.800 C 169.560 172.710,169.840 170.812,170.024 170.583 C 170.209 170.354,170.565 166.214,170.815 161.383 C 171.113 155.638,171.465 152.146,171.835 151.286 C 172.590 149.532,172.547 148.657,171.669 147.862 C 170.932 147.196,168.209 146.939,167.860 147.503 M213.510 148.179 C 212.973 148.915,212.174 149.232,209.910 149.609 C 208.309 149.876,206.648 150.279,206.218 150.505 C 205.789 150.731,204.619 151.148,203.618 151.432 C 200.696 152.262,198.521 153.163,199.392 153.182 C 199.828 153.192,201.088 152.864,202.192 152.453 C 205.765 151.122,209.527 150.000,210.475 149.982 C 210.984 149.973,212.117 149.710,212.993 149.398 C 214.396 148.898,214.700 148.905,215.534 149.451 L 216.481 150.072 215.407 151.193 C 214.522 152.116,213.862 152.363,211.666 152.593 C 210.200 152.747,208.460 153.121,207.800 153.425 C 207.140 153.729,205.520 154.247,204.200 154.576 C 202.880 154.904,200.816 155.449,199.613 155.787 C 197.198 156.464,192.532 156.597,191.612 156.016 C 190.912 155.574,190.945 155.537,193.000 154.468 C 193.948 153.975,194.308 153.628,193.884 153.618 C 192.445 153.582,189.942 155.188,190.075 156.061 C 190.409 158.245,197.588 158.061,204.600 155.690 C 205.260 155.467,206.700 154.975,207.800 154.598 C 208.900 154.221,211.226 153.684,212.970 153.405 C 216.466 152.845,217.200 152.286,217.200 150.186 C 217.200 147.935,214.686 146.568,213.510 148.179 M170.359 148.900 C 170.558 149.430,170.471 151.853,170.146 154.800 C 169.843 157.550,169.330 163.290,169.007 167.557 C 168.461 174.774,167.980 177.402,166.360 182.000 C 166.144 182.613,166.065 179.825,166.155 174.800 C 166.236 170.290,166.493 166.060,166.725 165.400 C 166.958 164.740,167.270 160.976,167.420 157.036 C 167.677 150.240,167.739 149.824,168.627 148.936 C 169.785 147.779,169.935 147.775,170.359 148.900 M195.900 153.482 C 196.395 153.578,197.205 153.578,197.700 153.482 C 198.195 153.387,197.790 153.309,196.800 153.309 C 195.810 153.309,195.405 153.387,195.900 153.482 M232.613 155.771 C 232.714 157.412,232.991 158.671,233.292 158.858 C 234.073 159.344,234.129 158.572,233.447 156.700 C 233.107 155.765,232.741 154.550,232.635 154.000 C 232.529 153.450,232.519 154.247,232.613 155.771 M192.231 168.767 C 190.048 171.046,192.728 172.232,200.969 172.632 L 206.791 172.915 208.365 171.824 C 212.038 169.279,210.157 168.150,201.800 167.884 C 198.378 167.775,196.822 167.831,197.800 168.030 C 198.680 168.208,201.061 168.364,203.090 168.377 C 205.990 168.395,207.050 168.564,208.038 169.165 L 209.296 169.930 208.068 170.565 C 206.670 171.288,203.200 171.368,197.053 170.819 C 192.442 170.407,191.884 170.079,193.333 168.631 C 193.900 168.064,194.135 167.600,193.857 167.600 C 193.578 167.600,192.846 168.125,192.231 168.767 M325.221 225.100 C 324.992 225.925,324.803 227.461,324.802 228.514 C 324.801 229.660,324.519 230.857,324.100 231.497 C 322.386 234.115,323.489 240.400,325.662 240.400 C 326.356 240.400,326.400 239.898,326.400 232.000 C 326.400 223.692,326.100 221.935,325.221 225.100 M306.418 249.778 C 305.433 250.965,306.079 252.166,308.000 252.714 C 308.990 252.997,310.610 253.491,311.600 253.814 C 312.590 254.136,314.570 254.505,316.000 254.633 C 317.430 254.762,319.443 255.212,320.474 255.634 C 321.505 256.055,323.125 256.401,324.074 256.402 C 325.023 256.404,326.340 256.697,327.000 257.054 C 327.660 257.411,328.958 257.853,329.885 258.037 C 330.812 258.220,331.919 258.692,332.345 259.085 C 334.738 261.294,335.676 262.000,336.217 262.000 C 336.893 262.000,337.600 263.547,337.600 265.026 C 337.600 266.669,339.104 266.318,339.426 264.600 C 340.057 261.238,334.725 254.800,331.310 254.800 C 330.806 254.800,332.156 255.995,332.936 256.239 C 333.411 256.388,334.340 256.935,335.000 257.455 C 339.032 260.631,339.540 261.507,338.992 264.331 L 338.708 265.800 338.191 263.804 C 337.907 262.706,337.365 261.626,336.986 261.404 C 336.607 261.182,335.375 260.270,334.248 259.379 C 331.665 257.334,328.790 256.109,325.474 255.639 C 324.048 255.437,322.548 255.094,322.141 254.877 C 321.733 254.660,319.972 254.267,318.227 254.003 C 316.482 253.739,314.682 253.292,314.227 253.009 C 313.772 252.725,312.370 252.396,311.110 252.277 C 306.304 251.821,307.154 250.746,312.120 251.000 L 315.800 251.188 312.463 250.637 C 310.628 250.334,308.927 249.887,308.683 249.643 C 308.066 249.026,306.989 249.090,306.418 249.778 M318.000 251.606 C 319.210 251.771,320.707 252.107,321.326 252.353 C 321.945 252.599,322.935 252.790,323.526 252.778 C 324.269 252.764,323.860 252.519,322.200 251.984 C 320.880 251.559,318.900 251.233,317.800 251.258 L 315.800 251.305 318.000 251.606 M325.400 253.056 C 325.840 253.180,326.470 253.514,326.800 253.798 C 327.130 254.081,328.210 254.429,329.200 254.570 L 331.000 254.828 328.800 253.988 C 327.590 253.527,326.150 253.077,325.600 252.989 C 324.987 252.891,324.910 252.917,325.400 253.056 M262.400 283.220 C 258.110 283.370,253.391 283.518,251.914 283.547 C 248.129 283.622,247.840 284.250,249.808 288.124 C 255.743 299.811,264.636 302.998,270.393 295.502 C 271.280 294.346,272.166 293.203,272.361 292.962 C 272.556 292.722,273.026 291.912,273.407 291.162 C 273.787 290.413,274.728 288.915,275.496 287.834 C 279.291 282.495,279.631 282.615,262.400 283.220 M276.800 284.217 C 276.800 284.776,276.080 286.209,275.200 287.400 C 274.320 288.591,273.597 289.709,273.593 289.883 C 273.589 290.057,273.047 291.010,272.390 292.000 C 269.694 296.057,268.201 297.589,265.844 298.712 L 263.930 299.624 261.122 298.719 C 258.387 297.838,252.800 293.422,252.800 292.141 C 252.800 291.911,252.440 291.398,252.000 291.000 C 251.560 290.602,251.200 290.058,251.200 289.792 C 251.200 289.526,250.821 288.826,250.357 288.236 C 248.674 286.096,249.084 284.619,251.400 284.479 C 252.500 284.413,257.270 284.124,262.000 283.837 C 276.113 282.982,276.800 282.999,276.800 284.217 M204.072 286.696 C 211.361 286.796,212.774 286.911,212.931 287.415 C 213.058 287.823,213.098 287.788,213.054 287.308 C 212.994 286.655,212.312 286.599,204.195 286.589 L 195.400 286.577 204.072 286.696 M187.200 287.529 C 187.200 290.394,193.125 297.190,196.496 298.191 C 202.125 299.863,208.068 296.932,211.734 290.677 C 212.996 288.523,213.120 287.885,212.000 289.309 C 211.560 289.869,211.200 290.553,211.200 290.831 C 211.200 291.392,205.612 296.800,205.031 296.800 C 204.829 296.800,204.315 297.115,203.890 297.500 C 200.248 300.795,191.044 295.907,188.437 289.294 L 187.630 287.247 189.115 287.090 L 190.600 286.934 188.900 286.867 C 187.497 286.812,187.200 286.927,187.200 287.529 M136.829 287.643 C 130.950 288.065,130.780 288.222,132.512 291.617 C 137.835 302.045,143.522 302.076,149.814 291.714 C 151.873 288.321,151.779 288.637,150.971 287.829 C 150.261 287.118,145.075 287.050,136.829 287.643 M150.606 288.409 C 150.917 288.914,147.067 295.391,145.554 296.906 C 143.202 299.261,138.617 299.239,136.493 296.863 C 135.775 296.058,134.942 295.130,134.644 294.800 C 134.346 294.470,133.964 293.750,133.796 293.200 C 133.628 292.650,133.155 291.771,132.745 291.246 C 131.039 289.062,131.615 288.446,135.500 288.298 C 144.048 287.972,150.364 288.019,150.606 288.409 M92.615 303.100 C 91.604 305.718,91.486 322.475,92.463 324.595 C 93.816 327.528,96.356 330.775,97.517 331.053 C 98.113 331.196,98.901 331.625,99.269 332.006 C 99.661 332.413,100.903 332.821,102.269 332.991 C 103.550 333.151,105.097 333.540,105.705 333.854 C 106.313 334.169,108.293 334.538,110.105 334.675 C 112.052 334.823,113.802 335.186,114.382 335.563 C 115.927 336.565,141.041 336.511,143.508 335.500 C 144.713 335.006,146.303 334.801,148.908 334.803 C 153.482 334.807,162.323 334.040,163.400 333.545 C 164.187 333.183,223.538 332.208,229.000 332.467 C 239.194 332.951,266.696 332.571,268.214 331.926 C 269.148 331.529,271.290 331.182,273.425 331.081 C 275.583 330.979,277.606 330.648,278.425 330.264 C 279.181 329.909,281.330 329.446,283.200 329.235 C 285.070 329.024,287.230 328.593,288.000 328.278 C 288.811 327.946,291.672 327.587,294.800 327.426 C 297.770 327.273,301.100 326.964,302.200 326.739 C 305.487 326.069,308.449 325.895,309.352 326.318 C 309.818 326.537,311.243 326.946,312.519 327.226 C 313.794 327.507,314.930 327.886,315.042 328.068 C 315.459 328.743,316.000 328.370,316.000 327.408 C 316.000 326.675,315.609 326.201,314.500 325.593 C 313.675 325.140,312.444 324.416,311.764 323.985 C 310.061 322.905,306.345 322.599,301.491 323.140 C 299.241 323.390,295.309 323.777,292.752 324.000 C 290.196 324.223,287.569 324.592,286.915 324.820 C 286.260 325.048,284.572 325.384,283.162 325.567 C 281.237 325.816,280.998 325.906,282.200 325.928 C 283.080 325.944,285.240 325.688,287.000 325.359 C 297.605 323.375,313.528 323.038,311.722 324.836 C 311.545 325.013,308.201 325.263,304.290 325.392 C 300.380 325.520,296.780 325.785,296.290 325.980 C 295.801 326.175,293.240 326.545,290.600 326.804 C 287.960 327.062,284.645 327.617,283.233 328.037 C 281.821 328.457,280.193 328.800,279.617 328.800 C 279.040 328.800,277.529 329.071,276.259 329.401 C 272.375 330.413,257.483 331.747,251.400 331.628 C 243.496 331.473,239.810 331.250,238.000 330.815 C 236.790 330.524,235.170 330.304,234.400 330.325 C 230.640 330.427,224.615 330.287,221.200 330.019 C 218.276 329.789,220.029 329.698,228.800 329.621 C 235.070 329.566,241.190 329.397,242.400 329.245 C 247.110 328.653,198.364 329.771,191.200 330.419 C 188.890 330.628,181.690 330.841,175.200 330.891 C 164.923 330.971,164.471 330.998,171.700 331.100 C 176.773 331.171,180.000 331.369,180.000 331.608 C 180.000 331.854,176.455 331.990,170.500 331.972 C 164.822 331.955,161.322 331.805,161.800 331.600 C 162.973 331.096,155.788 331.132,151.200 331.653 C 149.110 331.891,145.600 332.224,143.400 332.395 C 139.998 332.658,140.545 332.697,147.063 332.652 C 154.008 332.605,155.761 332.772,155.113 333.420 C 154.992 333.541,152.037 333.803,148.547 334.002 C 145.056 334.200,141.570 334.535,140.800 334.744 C 138.831 335.281,123.095 335.659,120.200 335.240 C 118.880 335.049,116.810 334.698,115.600 334.459 C 114.390 334.220,112.365 333.916,111.100 333.784 C 107.953 333.454,108.200 332.812,111.500 332.746 C 112.985 332.716,113.750 332.616,113.200 332.524 C 112.650 332.432,111.390 332.104,110.400 331.795 C 109.410 331.486,107.430 331.118,106.000 330.977 C 99.498 330.336,95.309 325.873,94.381 318.600 C 94.078 316.218,94.076 316.225,94.138 319.429 C 94.186 321.911,94.362 322.819,94.900 323.357 C 95.285 323.742,95.600 324.288,95.600 324.570 C 95.600 324.852,96.005 325.526,96.500 326.067 C 96.995 326.608,97.759 327.536,98.198 328.129 C 98.637 328.723,99.303 329.306,99.678 329.425 C 100.052 329.544,100.470 329.992,100.606 330.420 C 100.818 331.087,101.242 331.204,103.527 331.228 C 104.997 331.244,106.560 331.422,107.000 331.624 C 107.542 331.873,106.663 331.961,104.272 331.896 C 101.392 331.818,100.672 331.671,100.352 331.100 C 100.137 330.715,99.533 330.400,99.011 330.400 C 97.943 330.400,94.709 326.903,94.203 325.200 C 94.039 324.650,93.619 323.874,93.269 323.476 C 92.454 322.549,92.308 307.932,93.100 306.600 C 93.658 305.661,93.703 306.096,93.690 312.400 L 93.683 316.200 93.992 313.400 C 94.768 306.361,93.891 299.796,92.615 303.100 M230.200 318.857 C 227.255 321.254,227.420 321.384,233.568 321.512 C 239.155 321.629,239.860 321.449,239.408 320.026 C 238.521 317.231,233.050 316.537,230.200 318.857 M236.400 318.460 C 237.789 318.944,239.200 320.124,239.200 320.800 C 239.200 321.047,237.133 321.200,233.800 321.200 C 230.467 321.200,228.400 321.047,228.400 320.800 C 228.400 320.580,228.661 320.400,228.980 320.400 C 229.299 320.400,229.719 320.117,229.912 319.771 C 230.795 318.194,233.861 317.575,236.400 318.460 M168.300 319.729 C 166.685 321.052,166.957 321.480,168.610 320.219 L 170.021 319.143 171.861 320.172 C 174.254 321.509,174.486 321.470,172.785 320.016 C 171.127 318.599,169.785 318.513,168.300 319.729 M278.272 326.448 C 277.871 326.681,276.341 327.012,274.872 327.183 C 272.300 327.483,272.275 327.496,274.200 327.538 C 276.485 327.587,279.095 327.065,279.729 326.431 C 280.303 325.857,279.267 325.869,278.272 326.448 M266.600 328.228 C 264.840 328.520,259.170 328.920,254.000 329.117 C 247.760 329.355,246.147 329.491,249.200 329.521 C 256.142 329.589,269.161 328.929,269.713 328.481 C 269.981 328.264,270.560 327.998,271.000 327.889 C 272.680 327.477,269.793 327.699,266.600 328.228 M199.200 331.600 C 198.398 332.118,188.520 332.118,188.200 331.600 C 188.039 331.340,190.028 331.202,193.876 331.206 C 197.849 331.210,199.602 331.340,199.200 331.600 M120.525 333.099 C 124.004 333.166,129.584 333.166,132.925 333.099 C 136.266 333.032,133.420 332.978,126.600 332.978 C 119.780 332.978,117.046 333.033,120.525 333.099 " stroke="none" fill="#a0f2d5" fill-rule="evenodd"></path></g></svg>